<?xml version="1.0" encoding="UTF-8" standalone="no"?>
<!-- Generator: Adobe Illustrator 26.0.2, SVG Export Plug-In . SVG Version: 6.00 Build 0)  -->

<svg
   version="1.1"
   id="Livello_1"
   x="0px"
   y="0px"
   viewBox="0 0 2100 1200"
   xml:space="preserve"
   sodipodi:docname="logo_MS_ba_no_etichette.svg"
   inkscape:version="1.4 (e7c3feb1, 2024-10-09)"
   width="2100"
   height="1200"
   inkscape:export-filename="logo_MS_ba_no_etichette.png"
   inkscape:export-xdpi="141.71428"
   inkscape:export-ydpi="141.71428"
   xmlns:inkscape="http://www.inkscape.org/namespaces/inkscape"
   xmlns:sodipodi="http://sodipodi.sourceforge.net/DTD/sodipodi-0.dtd"
   xmlns="http://www.w3.org/2000/svg"
   xmlns:svg="http://www.w3.org/2000/svg"><defs
   id="defs90" /><sodipodi:namedview
   id="namedview90"
   pagecolor="#ffffff"
   bordercolor="#000000"
   borderopacity="0.25"
   inkscape:showpageshadow="2"
   inkscape:pageopacity="0.0"
   inkscape:pagecheckerboard="0"
   inkscape:deskcolor="#d1d1d1"
   inkscape:zoom="0.37901781"
   inkscape:cx="1028.9754"
   inkscape:cy="342.9918"
   inkscape:window-width="1728"
   inkscape:window-height="979"
   inkscape:window-x="0"
   inkscape:window-y="38"
   inkscape:window-maximized="0"
   inkscape:current-layer="Livello_1" />
<style
   type="text/css"
   id="style1">
	.st0{fill:#878787;}
	.st1{font-family:'ArialMT';}
	.st2{font-size:42px;}
	.st3{fill:none;stroke:#000000;stroke-width:0.75;stroke-miterlimit:10;}
	.st4{fill:#878787;stroke:#000000;stroke-width:0.75;stroke-miterlimit:10;}
	.st5{fill:none;stroke:#312783;stroke-width:5.5128;stroke-miterlimit:10;}
	.st6{fill:none;stroke:#312783;stroke-width:5;stroke-miterlimit:10;}
	.st7{opacity:0.6;fill:none;stroke:#312783;stroke-width:6;stroke-miterlimit:10;enable-background:new    ;}
	.st8{opacity:0.6;fill:none;stroke:#312783;stroke-width:7;stroke-miterlimit:10;enable-background:new    ;}
	.st9{opacity:0.6;fill:none;stroke:#312783;stroke-width:9;stroke-miterlimit:10;enable-background:new    ;}
	.st10{opacity:0.6;fill:none;stroke:#312783;stroke-width:7.1088;stroke-miterlimit:10;enable-background:new    ;}
	.st11{opacity:0.7;fill:none;stroke:#BE1622;stroke-width:8;stroke-miterlimit:10;enable-background:new    ;}
	.st12{opacity:0.4;fill:none;stroke:#878787;stroke-width:3;stroke-miterlimit:10;enable-background:new    ;}
	.st13{opacity:0.7;fill:none;stroke:#BE1622;stroke-width:5;stroke-miterlimit:10;enable-background:new    ;}
	.st14{opacity:0.6;fill:none;stroke:#312783;stroke-width:4;stroke-miterlimit:10;enable-background:new    ;}
	.st15{opacity:0.6;fill:none;stroke:#312783;stroke-width:3;stroke-miterlimit:10;enable-background:new    ;}
	.st16{opacity:0.7;fill:none;stroke:#BE1622;stroke-width:4.8314;stroke-miterlimit:10;enable-background:new    ;}
	.st17{opacity:0.6;fill:none;stroke:#312783;stroke-width:6.9198;stroke-miterlimit:10;enable-background:new    ;}
	.st18{opacity:0.6;fill:none;stroke:#B0AEAE;stroke-width:3;stroke-miterlimit:10;enable-background:new    ;}
	.st19{opacity:0.7;fill:none;stroke:#991305;stroke-width:3;stroke-miterlimit:10;enable-background:new    ;}
	.st20{fill:none;}
	.st21{fill:none;stroke:#312783;stroke-width:4;stroke-miterlimit:10;}
	.st22{opacity:0.6;fill:none;stroke:#312783;stroke-width:6.0493;stroke-miterlimit:10;enable-background:new    ;}
	.st23{opacity:0.6;fill:none;stroke:#312783;stroke-width:5;stroke-miterlimit:10;enable-background:new    ;}
	.st24{opacity:0.7;fill:none;stroke:#BE1622;stroke-width:7;stroke-miterlimit:10;enable-background:new    ;}
	.st25{opacity:0.7;fill:none;stroke:#BE1622;stroke-width:9;stroke-miterlimit:10;enable-background:new    ;}
	.st26{fill:none;stroke:#BE1622;stroke-width:5;stroke-miterlimit:10;}
	.st27{opacity:0.7;fill:none;stroke:#BE1622;stroke-width:4;stroke-miterlimit:10;enable-background:new    ;}
	.st28{opacity:0.6;fill:none;stroke:#312783;stroke-width:5.1567;stroke-miterlimit:10;enable-background:new    ;}
	.st29{opacity:0.8;fill:#BE1622;enable-background:new    ;}
	.st30{opacity:0.85;fill:#312783;enable-background:new    ;}
	.st31{opacity:0.9;fill:#878787;enable-background:new    ;}
	.st32{font-size:60px;}
	.st33{opacity:0.9;fill:none;stroke:#000000;stroke-width:0.75;stroke-miterlimit:10;enable-background:new    ;}
	.st34{font-size:36px;}
	.st35{fill:none;stroke:#000000;stroke-width:0.75;stroke-miterlimit:10.0001;}
</style>





<path
   class="st5"
   d="M 597,692.3"
   id="path5" />
<path
   class="st6"
   d="M 412.1,810.2"
   id="path6" />
<path
   class="st7"
   d="m 685.3,747 c 0,0 -141.5,-6.9 -273.2,63.2"
   id="path7"
   style="stroke:#ffb455;stroke-opacity:1" />
<path
   class="st8"
   d="m 319.4,551.4 c 0,0 173.3,201.3 365.9,195.6"
   id="path8"
   style="stroke:#ff9933;stroke-opacity:0.94999999" />
<path
   class="st9"
   d="M 484.1,443.7 C 362,570.5 319.4,551.3 319.4,551.3"
   id="path9"
   style="stroke:#ff9933;stroke-opacity:0.94999999" />
<path
   class="st10"
   d="m 1285.1,220.6 c 0,0 -160.8,293.8 -361.1,298.5"
   id="path10"
   style="stroke:#ffb455;stroke-opacity:0.01" />
<path
   class="st11"
   d="m 1480.1,443.2 c -61.6,307.4 -150.3,309.1 -150.3,309.1"
   id="path11"
   style="stroke:#5077b7;stroke-opacity:1" />
<path
   class="st12"
   d="m 1285.1,220.6 c 0,0 108.9,-1.1 195,222.5"
   id="path12" />
<path
   class="st13"
   d="m 1248.9,498.1 c -4.2,76.3 80.9,254.2 80.9,254.2"
   id="path13"
   style="stroke:#5077b7;stroke-opacity:1" />
<path
   class="st12"
   d="m 1285.1,220.6 c 0,0 -29.6,159.8 -36.1,277.4"
   id="path14" />
<path
   class="st8"
   d="m 674.6,302.4 c 0,0 401.8,-7.1 610.4,-81.8"
   id="path15"
   style="stroke:#ff9933;stroke-opacity:1" />
<path
   class="st9"
   d="m 319.4,551.4 c 0,0 180.7,6.5 355.2,-249"
   id="path16"
   style="stroke:#ff9933;stroke-opacity:0.94999999" />
<path
   class="st7"
   d="M 923.9,519.1 C 607.5,536.9 412,810.1 412,810.1"
   id="path17"
   style="stroke:#ff9933;stroke-opacity:0.94999999" />
<path
   class="st14"
   d="M 688.2,547.6 C 876.5,507 923.9,519.2 923.9,519.2"
   id="path18"
   style="stroke:#ffb455;stroke-opacity:0.01" />
<path
   class="st14"
   d="m 323.8,550.5 c -1.5,0.3 -3,0.5 -4.4,0.8 l 368.9,-3.8"
   id="path19"
   style="stroke:#ffb455;stroke-opacity:1" />
<path
   class="st15"
   d="m 923.9,519.1 c 0,0 -470.7,8.5 -600.2,31.4"
   id="path20"
   style="stroke:#ff9933;stroke-opacity:0.94999999" />
<path
   class="st14"
   d="m 905,329.4 c 0,0 -6.5,39 18.9,189.8"
   id="path21"
   style="stroke:#ffb455;stroke-opacity:0.01" />
<path
   class="st16"
   d="m 1107,594.8 c 0,0 72,-59.7 141.9,-96.8 0,0 94.8,3.1 180.1,67.9 85.3,64.8 138,118.9 112.1,96.2"
   id="path22"
   style="stroke:#5077b7;stroke-opacity:1" />
<path
   class="st12"
   d="m 905,329.4 c 0,0 95.1,-12.8 201.9,265.5"
   id="path23" />
<path
   class="st17"
   d="M 905,326.4 C 790.2,330 674.6,300 674.6,300"
   id="path24"
   style="stroke:#ff9933;stroke-opacity:0.94999999" />
<path
   class="st18"
   d="m 674.6,302.4 c 0,0 183.5,-40.2 432.3,296.4"
   id="path25" />
<path
   class="st15"
   d="m 998.8,202.7 c 0,0 -153.6,105 -324.2,99.7 l 13.6,245.2 -2.9,199.4"
   id="path26"
   style="stroke:#ff9933;stroke-opacity:0.94999999" />
<path
   class="st19"
   d="m 1480.1,443.2 c 0,0 28.2,73.6 56.6,69.6"
   id="path27"
   style="stroke:#002882;stroke-opacity:0.01" />
<path
   class="st12"
   d="m 998.8,202.7 c 0,0 187.8,-35.2 481.3,240.5"
   id="path28" />
<path
   class="st14"
   d="m 998.8,202.7 c 121,22 173.6,136.9 173.6,136.9"
   id="path29"
   style="stroke:#ff9933;stroke-opacity:0.94999999" />
<path
   class="st9"
   d="m 484.1,443.7 c 0,0 278.1,15.9 688.3,-104.1"
   id="path30"
   style="stroke:#ff9933;stroke-opacity:0.94999999" />
<path
   class="st15"
   d="M 685.3,747 C 569.3,744.5 484.1,443.7 484.1,443.7"
   id="path31"
   style="stroke:#ff9933;stroke-opacity:0.94999999" />
<path
   class="st12"
   d="m 685.3,747 c 0,0 200.5,16.6 421.7,-148.2"
   id="path32" />
<path
   class="st15"
   d="M 412.1,810.2 C 541.8,822.9 688.2,547.6 688.2,547.6"
   id="path33"
   style="stroke:#ff9933;stroke-opacity:0.94999999" />
<path
   class="st20"
   d="M 412.1,810.2"
   id="path34" />
<path
   class="st21"
   d="M 706,-24.1"
   id="path35" />
<path
   class="st22"
   d="m 998.8,202.7 c 0,0 -111.1,350.4 -310.6,344.9"
   id="path36"
   style="stroke:#ff9933;stroke-opacity:0.94999999" />
<path
   class="st23"
   d="m 923.9,519.1 c 0,0 -218.8,5.7 -439.9,-75.5"
   id="path37"
   style="stroke:#ff9933;stroke-opacity:0.94999999" />
<path
   class="st24"
   d="m 1480.1,443.2 c 0,0 16.6,179.6 67.7,225.6"
   id="path38"
   style="stroke:#5077b7;stroke-opacity:1" />
<path
   class="st12"
   d="m 1172.4,339.5 c 0,0 147,-12.8 307.7,103.6"
   id="path39" />
<path
   class="st12"
   d="m 1172.4,339.5 c 0,0 182.7,-9.4 364.3,173.2"
   id="path40" />
<path
   class="st12"
   d="m 1248.9,498.1 c 0,0 -153.8,-165 -339.5,-168.7"
   id="path41" />
<path
   class="st12"
   d="m 1178.3,339.1 c 12.3,2.1 42,22.6 70.7,158.9"
   id="path42" />
<path
   class="st21"
   d="M 923.9,519.1"
   id="path43" />
<g
   id="Livello_2_00000139994485223562656510000006814076482496113797_">
</g>
<g
   id="Livello_4">
</g>
<path
   class="st13"
   d="m 1547.8,668.8 c 0,0 -231,-1.2 -440.8,-70"
   id="path44"
   style="fill:#000000;fill-opacity:0;stroke:#5077b7;stroke-opacity:1" />
<line
   class="st13"
   x1="1536.7"
   y1="512.79999"
   x2="1547.8"
   y2="668.79999"
   id="line44"
   style="stroke:#002882;stroke-opacity:0.01" />
<path
   class="st11"
   d="M 1251.1,498.1 C 1175,494.8 1107,598.8 1107,598.8"
   id="path45"
   style="stroke:#5077b7;stroke-opacity:1" />
<path
   class="st11"
   d="m 1480.1,443.2 c 0,0 -58.8,62.2 -229,54.9"
   id="path46"
   style="stroke:#5077b7;stroke-opacity:1" />
<path
   class="st11"
   d="m 1107,598.8 c 234.3,-99.7 429.7,-86 429.7,-86 0,0 -165.6,-18 -285.6,-14.7"
   id="path47"
   style="stroke:#5077b7;stroke-opacity:1" />
<path
   class="st25"
   d="m 1107,594.8 c 0,0 90.6,156.1 222.8,157.4"
   id="path48"
   style="stroke:#5077b7;stroke-opacity:1" />
<path
   class="st11"
   d="m 1536.7,512.8 c 0,0 -71.2,199.4 -202.1,239.5"
   id="path49"
   style="stroke:#5077b7;stroke-opacity:1" />
<path
   class="st13"
   d="m 1480.1,443.2 c -98.4,-6.1 -229,54.9 -229,54.9"
   id="path50"
   style="stroke:#5077b7;stroke-opacity:1" />
<path
   class="st12"
   d="m 688.2,547.6 c 0,0 148.2,-6.4 418.7,51.2"
   id="path51" />
<path
   class="st12"
   d="m 688.2,547.6 c 0,0 345,-6.6 560.7,-49.5 L 1480,443.2"
   id="path52" />
<line
   class="st12"
   x1="1329.8"
   y1="752.29999"
   x2="685.29999"
   y2="747"
   id="line52" />
<path
   class="st26"
   d="M 815,931.3"
   id="path53" />
<path
   class="st26"
   d="M 1536.7,512.8"
   id="path54" />
<path
   class="st27"
   d="m 1547.8,668.8 c 0,0 -105.7,84.4 -213.2,82.6"
   id="path55"
   style="stroke:#5077b7;stroke-opacity:1" />
<path
   class="st12"
   d="M 1547.8,668.8 C 1200.5,502.3 924,519.1 924,519.1 L 1249,498"
   id="path56" />
<path
   class="st28"
   d="m 998.8,202.7 c 0,0 -67.2,94.7 -93.5,126.9"
   id="path57"
   style="stroke:#ffb455;stroke-opacity:0.01" />
<circle
   class="st29"
   cx="1251.1"
   cy="498.10001"
   r="43.400002"
   id="circle57"
   style="fill:#5077b7;fill-opacity:0.99000001" />
<circle
   class="st29"
   cx="1107"
   cy="598.79999"
   r="26.1"
   id="circle58"
   style="fill:#5077b7;fill-opacity:0.99000001" />
<circle
   class="st29"
   cx="1536.7"
   cy="512.79999"
   r="28.799999"
   id="circle59"
   style="fill:#5077b7;fill-opacity:0.99000001" />
<circle
   class="st29"
   cx="1547.8"
   cy="668.79999"
   r="23.5"
   id="circle60"
   style="fill:#5077b7;fill-opacity:0.99000001" />
<circle
   class="st29"
   cx="1329.8"
   cy="752.29999"
   r="30.299999"
   id="circle61"
   style="fill:#5077b7;fill-opacity:0.99000001" />
<circle
   class="st29"
   cx="1480.1"
   cy="443.20001"
   r="32.299999"
   id="circle62"
   style="fill:#5077b7;fill-opacity:0.99000001" />
<circle
   class="st30"
   cx="998.79999"
   cy="202.7"
   r="33.900002"
   id="circle63"
   style="fill:#ff9933;fill-opacity:0.89999998" />
<circle
   class="st30"
   cx="1285.1"
   cy="220.60001"
   r="43.400002"
   id="circle64"
   style="fill:#ff9933;fill-opacity:0.89999998" />
<circle
   class="st30"
   cx="905"
   cy="329.39999"
   r="34.5"
   id="circle65"
   style="fill:#ff9933;fill-opacity:0.89999998" />
<circle
   class="st30"
   cx="1172.4"
   cy="339.5"
   r="19.299999"
   id="circle66"
   style="fill:#ff9933;fill-opacity:0.89999998" />
<circle
   class="st30"
   cx="484.10001"
   cy="443.70001"
   r="19.299999"
   id="circle67"
   style="fill:#ff9933;fill-opacity:0.89999998" />
<circle
   class="st30"
   cx="685.29999"
   cy="747"
   r="19.299999"
   id="circle68"
   style="fill:#ff9933;fill-opacity:0.89999998" />
<circle
   class="st30"
   cx="688.20001"
   cy="547.59998"
   r="21.1"
   id="circle69"
   style="fill:#ff9933;fill-opacity:0.89999998" />
<circle
   class="st30"
   cx="412.10001"
   cy="810.20001"
   r="32.5"
   id="circle70"
   style="fill:#ff9933;fill-opacity:0.89999998" />
<circle
   transform="rotate(-80.781636)"
   class="st30"
   cx="-190.4455"
   cy="714.39069"
   id="ellipse70"
   r="22.900349"
   style="stroke-width:1.00002;fill:#ff9933;fill-opacity:0.94999999" />
<circle
   class="st30"
   cx="923.90002"
   cy="519.09998"
   r="54.400002"
   id="circle71"
   style="fill:#ff9933;fill-opacity:0.89999998" />




















<circle
   class="st30"
   cx="319.39999"
   cy="551.40002"
   r="24.9"
   id="circle90"
   style="fill:#ff9933;fill-opacity:0.89999998" />
<path
   class="st23"
   d="m 923.9,519.1 c 155.6,-11.3 248.4,-179.6 248.4,-179.6 0,0 2.1,-1.1 5.9,-0.4 41.3,-16.9 102.5,-111 102.5,-111"
   id="path90"
   style="stroke:#ff9933;stroke-opacity:0.94999999" /><g
   id="g90" />
</svg>
