<?xml version="1.0" encoding="UTF-8" standalone="no"?>
<svg
   version="1.1"
   id="Livello_1"
   x="0px"
   y="0px"
   viewBox="20 20 1276.8 762.5"
   xml:space="preserve"
   sodipodi:docname="logo_MS_ba_no_etichette_cropped.svg"
   inkscape:version="1.4 (e7c3feb1, 2024-10-09)"
   width="1276.8"
   height="762.5"
   inkscape:export-filename="logo_MS_ba_no_etichette.png"
   inkscape:export-xdpi="141.71428"
   inkscape:export-ydpi="141.71428"
   xmlns:inkscape="http://www.inkscape.org/namespaces/inkscape"
   xmlns:sodipodi="http://sodipodi.sourceforge.net/DTD/sodipodi-0.dtd"
   xmlns="http://www.w3.org/2000/svg"
   xmlns:svg="http://www.w3.org/2000/svg"><defs
   id="defs90" /><sodipodi:namedview
   id="namedview90"
   pagecolor="#ffffff"
   bordercolor="#000000"
   borderopacity="0.25"
   inkscape:showpageshadow="2"
   inkscape:pageopacity="0.0"
   inkscape:pagecheckerboard="0"
   inkscape:deskcolor="#d1d1d1"
   inkscape:zoom="0.37901781"
   inkscape:cx="754.58195"
   inkscape:cy="195.24148"
   inkscape:window-width="1728"
   inkscape:window-height="979"
   inkscape:window-x="0"
   inkscape:window-y="34"
   inkscape:window-maximized="0"
   inkscape:current-layer="Livello_1" />
<style
   type="text/css"
   id="style1">
	.st0{fill:#878787;}
	.st1{font-family:'ArialMT';}
	.st2{font-size:42px;}
	.st3{fill:none;stroke:#000000;stroke-width:0.75;stroke-miterlimit:10;}
	.st4{fill:#878787;stroke:#000000;stroke-width:0.75;stroke-miterlimit:10;}
	.st5{fill:none;stroke:#312783;stroke-width:5.5128;stroke-miterlimit:10;}
	.st6{fill:none;stroke:#312783;stroke-width:5;stroke-miterlimit:10;}
	.st7{opacity:0.6;fill:none;stroke:#312783;stroke-width:6;stroke-miterlimit:10;enable-background:new    ;}
	.st8{opacity:0.6;fill:none;stroke:#312783;stroke-width:7;stroke-miterlimit:10;enable-background:new    ;}
	.st9{opacity:0.6;fill:none;stroke:#312783;stroke-width:9;stroke-miterlimit:10;enable-background:new    ;}
	.st10{opacity:0.6;fill:none;stroke:#312783;stroke-width:7.1088;stroke-miterlimit:10;enable-background:new    ;}
	.st11{opacity:0.7;fill:none;stroke:#BE1622;stroke-width:8;stroke-miterlimit:10;enable-background:new    ;}
	.st12{opacity:0.4;fill:none;stroke:#878787;stroke-width:3;stroke-miterlimit:10;enable-background:new    ;}
	.st13{opacity:0.7;fill:none;stroke:#BE1622;stroke-width:5;stroke-miterlimit:10;enable-background:new    ;}
	.st14{opacity:0.6;fill:none;stroke:#312783;stroke-width:4;stroke-miterlimit:10;enable-background:new    ;}
	.st15{opacity:0.6;fill:none;stroke:#312783;stroke-width:3;stroke-miterlimit:10;enable-background:new    ;}
	.st16{opacity:0.7;fill:none;stroke:#BE1622;stroke-width:4.8314;stroke-miterlimit:10;enable-background:new    ;}
	.st17{opacity:0.6;fill:none;stroke:#312783;stroke-width:6.9198;stroke-miterlimit:10;enable-background:new    ;}
	.st18{opacity:0.6;fill:none;stroke:#B0AEAE;stroke-width:3;stroke-miterlimit:10;enable-background:new    ;}
	.st19{opacity:0.7;fill:none;stroke:#991305;stroke-width:3;stroke-miterlimit:10;enable-background:new    ;}
	.st20{fill:none;}
	.st21{fill:none;stroke:#312783;stroke-width:4;stroke-miterlimit:10;}
	.st22{opacity:0.6;fill:none;stroke:#312783;stroke-width:6.0493;stroke-miterlimit:10;enable-background:new    ;}
	.st23{opacity:0.6;fill:none;stroke:#312783;stroke-width:5;stroke-miterlimit:10;enable-background:new    ;}
	.st24{opacity:0.7;fill:none;stroke:#BE1622;stroke-width:7;stroke-miterlimit:10;enable-background:new    ;}
	.st25{opacity:0.7;fill:none;stroke:#BE1622;stroke-width:9;stroke-miterlimit:10;enable-background:new    ;}
	.st26{fill:none;stroke:#BE1622;stroke-width:5;stroke-miterlimit:10;}
	.st27{opacity:0.7;fill:none;stroke:#BE1622;stroke-width:4;stroke-miterlimit:10;enable-background:new    ;}
	.st28{opacity:0.6;fill:none;stroke:#312783;stroke-width:5.1567;stroke-miterlimit:10;enable-background:new    ;}
	.st29{opacity:0.8;fill:#BE1622;enable-background:new    ;}
	.st30{opacity:0.85;fill:#312783;enable-background:new    ;}
	.st31{opacity:0.9;fill:#878787;enable-background:new    ;}
	.st32{font-size:60px;}
	.st33{opacity:0.9;fill:none;stroke:#000000;stroke-width:0.75;stroke-miterlimit:10;enable-background:new    ;}
	.st34{font-size:36px;}
	.st35{fill:none;stroke:#000000;stroke-width:0.75;stroke-miterlimit:10.0001;}
</style>





<path
   class="st5"
   d="M 322.50001,543.5"
   id="path5" />
<path
   class="st6"
   d="M 137.60001,661.4"
   id="path6" />
<path
   class="st7"
   d="m 410.80001,598.2 c 0,0 -141.5,-6.9 -273.2,63.2"
   id="path7"
   style="stroke:#ffb455;stroke-opacity:1" />
<path
   class="st8"
   d="m 44.900006,402.6 c 0,0 173.300004,201.3 365.900004,195.6"
   id="path8"
   style="stroke:#ff9933;stroke-opacity:0.95" />
<path
   class="st9"
   d="M 209.60001,294.9 C 87.500006,421.7 44.900006,402.5 44.900006,402.5"
   id="path9"
   style="stroke:#ff9933;stroke-opacity:0.95" />
<path
   class="st10"
   d="m 1010.6,71.800005 c 0,0 -160.79999,293.799995 -361.09999,298.499995"
   id="path10"
   style="stroke:#ffb455;stroke-opacity:0.01" />
<path
   class="st11"
   d="M 1205.6,294.4 C 1144,601.8 1055.3,603.5 1055.3,603.5"
   id="path11"
   style="stroke:#5077b7;stroke-opacity:1" />
<path
   class="st12"
   d="m 1010.6,71.800005 c 0,0 108.9,-1.1 195,222.499995"
   id="path12" />
<path
   class="st13"
   d="m 974.40001,349.3 c -4.2,76.3 80.89999,254.2 80.89999,254.2"
   id="path13"
   style="stroke:#5077b7;stroke-opacity:1" />
<path
   class="st12"
   d="m 1010.6,71.800005 c 0,0 -29.59999,159.799995 -36.09999,277.399995"
   id="path14" />
<path
   class="st8"
   d="m 400.10001,153.6 c 0,0 401.8,-7.1 610.39999,-81.799995"
   id="path15"
   style="stroke:#ff9933;stroke-opacity:1" />
<path
   class="st9"
   d="m 44.900006,402.6 c 0,0 180.700004,6.5 355.200004,-249"
   id="path16"
   style="stroke:#ff9933;stroke-opacity:0.95" />
<path
   class="st7"
   d="m 649.40001,370.3 c -316.4,17.8 -511.9,291 -511.9,291"
   id="path17"
   style="stroke:#ff9933;stroke-opacity:0.95" />
<path
   class="st14"
   d="m 413.70001,398.8 c 188.3,-40.6 235.7,-28.4 235.7,-28.4"
   id="path18"
   style="stroke:#ffb455;stroke-opacity:0.01" />
<path
   class="st14"
   d="m 49.300006,401.7 c -1.5,0.3 -3,0.5 -4.4,0.8 l 368.900004,-3.8"
   id="path19"
   style="stroke:#ffb455;stroke-opacity:1" />
<path
   class="st15"
   d="m 649.40001,370.3 c 0,0 -470.7,8.5 -600.200004,31.4"
   id="path20"
   style="stroke:#ff9933;stroke-opacity:0.95" />
<path
   class="st14"
   d="m 630.50001,180.6 c 0,0 -6.5,39 18.9,189.8"
   id="path21"
   style="stroke:#ffb455;stroke-opacity:0.01" />
<path
   class="st16"
   d="m 832.50001,446 c 0,0 72,-59.7 141.9,-96.8 0,0 94.79999,3.1 180.09999,67.9 85.3,64.8 138,118.9 112.1,96.2"
   id="path22"
   style="stroke:#5077b7;stroke-opacity:1" />
<path
   class="st12"
   d="m 630.50001,180.6 c 0,0 95.1,-12.8 201.9,265.5"
   id="path23" />
<path
   class="st17"
   d="m 630.50001,177.6 c -114.8,3.6 -230.4,-26.4 -230.4,-26.4"
   id="path24"
   style="stroke:#ff9933;stroke-opacity:0.95" />
<path
   class="st18"
   d="m 400.10001,153.6 c 0,0 183.5,-40.2 432.3,296.4"
   id="path25" />
<path
   class="st15"
   d="m 724.30001,53.900005 c 0,0 -153.6,104.999995 -324.2,99.699995 l 13.6,245.2 -2.9,199.4"
   id="path26"
   style="stroke:#ff9933;stroke-opacity:0.95" />
<path
   class="st19"
   d="m 1205.6,294.4 c 0,0 28.2,73.6 56.6,69.6"
   id="path27"
   style="stroke:#002882;stroke-opacity:0.01" />
<path
   class="st12"
   d="m 724.30001,53.900005 c 0,0 187.8,-35.2 481.29999,240.499995"
   id="path28" />
<path
   class="st14"
   d="m 724.30001,53.900005 c 121,22 173.6,136.899995 173.6,136.899995"
   id="path29"
   style="stroke:#ff9933;stroke-opacity:0.95" />
<path
   class="st9"
   d="m 209.60001,294.9 c 0,0 278.1,15.9 688.3,-104.1"
   id="path30"
   style="stroke:#ff9933;stroke-opacity:0.95" />
<path
   class="st15"
   d="m 410.80001,598.2 c -116,-2.5 -201.2,-303.3 -201.2,-303.3"
   id="path31"
   style="stroke:#ff9933;stroke-opacity:0.95" />
<path
   class="st12"
   d="m 410.80001,598.2 c 0,0 200.5,16.6 421.7,-148.2"
   id="path32" />
<path
   class="st15"
   d="m 137.60001,661.4 c 129.7,12.7 276.1,-262.6 276.1,-262.6"
   id="path33"
   style="stroke:#ff9933;stroke-opacity:0.95" />
<path
   class="st20"
   d="M 137.60001,661.4"
   id="path34" />
<path
   class="st21"
   d="M 431.50001,-172.9"
   id="path35" />
<path
   class="st22"
   d="m 724.30001,53.900005 c 0,0 -111.1,350.399995 -310.6,344.899995"
   id="path36"
   style="stroke:#ff9933;stroke-opacity:0.95" />
<path
   class="st23"
   d="m 649.40001,370.3 c 0,0 -218.8,5.7 -439.9,-75.5"
   id="path37"
   style="stroke:#ff9933;stroke-opacity:0.95" />
<path
   class="st24"
   d="m 1205.6,294.4 c 0,0 16.6,179.6 67.7,225.6"
   id="path38"
   style="stroke:#5077b7;stroke-opacity:1" />
<path
   class="st12"
   d="m 897.90001,190.7 c 0,0 146.99999,-12.8 307.69999,103.6"
   id="path39" />
<path
   class="st12"
   d="m 897.90001,190.7 c 0,0 182.69999,-9.4 364.29999,173.2"
   id="path40" />
<path
   class="st12"
   d="m 974.40001,349.3 c 0,0 -153.8,-165 -339.5,-168.7"
   id="path41" />
<path
   class="st12"
   d="m 903.80001,190.3 c 12.3,2.1 42,22.6 70.7,158.9"
   id="path42" />
<path
   class="st21"
   d="M 649.40001,370.3"
   id="path43" />
<g
   id="Livello_2_00000139994485223562656510000006814076482496113797_"
   transform="translate(-274.49999,-148.8)">
</g>
<g
   id="Livello_4"
   transform="translate(-274.49999,-148.8)">
</g>
<path
   class="st13"
   d="m 1273.3,520 c 0,0 -231,-1.2 -440.79999,-70"
   id="path44"
   style="fill:#000000;fill-opacity:0;stroke:#5077b7;stroke-opacity:1" />
<line
   class="st13"
   x1="1262.2"
   y1="364"
   x2="1273.3"
   y2="520"
   id="line44"
   style="stroke:#002882;stroke-opacity:0.01" />
<path
   class="st11"
   d="m 976.60001,349.3 c -76.1,-3.3 -144.1,100.7 -144.1,100.7"
   id="path45"
   style="stroke:#5077b7;stroke-opacity:1" />
<path
   class="st11"
   d="m 1205.6,294.4 c 0,0 -58.8,62.2 -228.99999,54.9"
   id="path46"
   style="stroke:#5077b7;stroke-opacity:1" />
<path
   class="st11"
   d="M 832.50001,450 C 1066.8,350.3 1262.2,364 1262.2,364 c 0,0 -165.6,-18 -285.59999,-14.7"
   id="path47"
   style="stroke:#5077b7;stroke-opacity:1" />
<path
   class="st25"
   d="m 832.50001,446 c 0,0 90.6,156.1 222.79999,157.4"
   id="path48"
   style="stroke:#5077b7;stroke-opacity:1" />
<path
   class="st11"
   d="m 1262.2,364 c 0,0 -71.2,199.4 -202.1,239.5"
   id="path49"
   style="stroke:#5077b7;stroke-opacity:1" />
<path
   class="st13"
   d="m 1205.6,294.4 c -98.4,-6.1 -228.99999,54.9 -228.99999,54.9"
   id="path50"
   style="stroke:#5077b7;stroke-opacity:1" />
<path
   class="st12"
   d="m 413.70001,398.8 c 0,0 148.2,-6.4 418.7,51.2"
   id="path51" />
<path
   class="st12"
   d="m 413.70001,398.8 c 0,0 345,-6.6 560.7,-49.5 L 1205.5,294.4"
   id="path52" />
<line
   class="st12"
   x1="1055.3"
   y1="603.5"
   x2="410.79999"
   y2="598.20001"
   id="line52" />
<path
   class="st26"
   d="M 540.50001,782.5"
   id="path53" />
<path
   class="st26"
   d="M 1262.2,364"
   id="path54" />
<path
   class="st27"
   d="m 1273.3,520 c 0,0 -105.7,84.4 -213.2,82.6"
   id="path55"
   style="stroke:#5077b7;stroke-opacity:1" />
<path
   class="st12"
   d="M 1273.3,520 C 926.00001,353.5 649.50001,370.3 649.50001,370.3 l 325,-21.1"
   id="path56" />
<path
   class="st28"
   d="m 724.30001,53.900005 c 0,0 -67.2,94.699995 -93.5,126.899995"
   id="path57"
   style="stroke:#ffb455;stroke-opacity:0.01" />
<circle
   class="st29"
   cx="976.59998"
   cy="349.30002"
   r="43.400002"
   id="circle57"
   style="fill:#5077b7;fill-opacity:0.99" />
<circle
   class="st29"
   cx="832.5"
   cy="450"
   r="26.1"
   id="circle58"
   style="fill:#5077b7;fill-opacity:0.99" />
<circle
   class="st29"
   cx="1262.2"
   cy="364"
   r="28.799999"
   id="circle59"
   style="fill:#5077b7;fill-opacity:0.99" />
<circle
   class="st29"
   cx="1273.3"
   cy="520"
   r="23.5"
   id="circle60"
   style="fill:#5077b7;fill-opacity:0.99" />
<circle
   class="st29"
   cx="1055.3"
   cy="603.5"
   r="30.299999"
   id="circle61"
   style="fill:#5077b7;fill-opacity:0.99" />
<circle
   class="st29"
   cx="1205.6"
   cy="294.40002"
   r="32.299999"
   id="circle62"
   style="fill:#5077b7;fill-opacity:0.99" />
<circle
   class="st30"
   cx="724.29999"
   cy="53.900002"
   r="33.900002"
   id="circle63"
   style="fill:#ff9933;fill-opacity:0.9" />
<circle
   class="st30"
   cx="1010.6"
   cy="71.800011"
   r="43.400002"
   id="circle64"
   style="fill:#ff9933;fill-opacity:0.9" />
<circle
   class="st30"
   cx="630.5"
   cy="180.60001"
   r="34.5"
   id="circle65"
   style="fill:#ff9933;fill-opacity:0.9" />
<circle
   class="st30"
   cx="897.90002"
   cy="190.70001"
   r="19.299999"
   id="circle66"
   style="fill:#ff9933;fill-opacity:0.9" />
<circle
   class="st30"
   cx="209.60001"
   cy="294.90002"
   r="19.299999"
   id="circle67"
   style="fill:#ff9933;fill-opacity:0.9" />
<circle
   class="st30"
   cx="410.79999"
   cy="598.20001"
   r="19.299999"
   id="circle68"
   style="fill:#ff9933;fill-opacity:0.9" />
<circle
   class="st30"
   cx="413.70001"
   cy="398.79999"
   r="21.1"
   id="circle69"
   style="fill:#ff9933;fill-opacity:0.9" />
<circle
   class="st30"
   cx="137.60001"
   cy="661.40002"
   r="32.5"
   id="circle70"
   style="fill:#ff9933;fill-opacity:0.9" />
<circle
   transform="rotate(-80.781636)"
   class="st30"
   cx="-87.541489"
   cy="419.59848"
   id="ellipse70"
   r="22.900349"
   style="fill:#ff9933;fill-opacity:0.95;stroke-width:1.00002" />
<circle
   class="st30"
   cx="649.40002"
   cy="370.29999"
   r="54.400002"
   id="circle71"
   style="fill:#ff9933;fill-opacity:0.9" />




















<circle
   class="st30"
   cx="44.900002"
   cy="402.60004"
   r="24.9"
   id="circle90"
   style="fill:#ff9933;fill-opacity:0.9" />
<path
   class="st23"
   d="m 649.40001,370.3 c 155.6,-11.3 248.4,-179.6 248.4,-179.6 0,0 2.1,-1.1 5.9,-0.4 C 945.00001,173.4 1006.2,79.300005 1006.2,79.300005"
   id="path90"
   style="stroke:#ff9933;stroke-opacity:0.95" /><g
   id="g90"
   transform="translate(-274.49999,-148.8)" />
</svg>
