<?xml version="1.0" encoding="UTF-8" standalone="no"?>
<!-- Created with Inkscape (http://www.inkscape.org/) -->

<svg
   version="1.1"
   id="svg2"
   width="566.9292"
   height="453.54333"
   viewBox="0 0 566.9292 453.54333"
   xmlns="http://www.w3.org/2000/svg"
   xmlns:svg="http://www.w3.org/2000/svg">
  <defs
     id="defs6" />
  <g
     id="g8"
     transform="matrix(1.3333333,0,0,-1.3333333,0,453.54333)">
    <g
       id="g10">
      <path
         d="m 146.8137,219.5816 h -24.4369 v 59.1712 h 24.4369 z"
         style="fill:#4178bc;fill-opacity:1;fill-rule:nonzero;stroke:none"
         id="path12" />
      <path
         d="m 150.2144,306.6021 c 0,-8.1919 -6.838,-14.8343 -15.2717,-14.8343 -8.4356,0 -15.2727,6.6424 -15.2727,14.8343 0,8.1921 6.8371,14.8345 15.2727,14.8345 8.4337,0 15.2717,-6.6424 15.2717,-14.8345"
         style="fill:#4178bc;fill-opacity:1;fill-rule:nonzero;stroke:none"
         id="path14" />
      <path
         d="m 320.0766,300.7729 v 22.4552 h -54.6452 -22.6346 -1.374 v -81.3563 -22.3013 -0.1539 h 78.6538 v 22.4552 h -54.6452 v 19.84 h 33.4505 v 22.4507 h -33.4505 v 16.6104 z"
         style="fill:#4178bc;fill-opacity:1;fill-rule:nonzero;stroke:none"
         id="path16" />
      <path
         d="m 216.9598,299.3026 c -3.009,2.3731 -6.016,4.1281 -9.0247,5.2707 -3.0089,1.143 -5.9212,1.7119 -8.7394,1.7119 -3.5743,0 -6.4868,-0.8218 -8.7404,-2.4653 -2.2578,-1.6433 -3.3831,-3.7877 -3.3831,-6.435 0,-1.8252 0.5624,-3.3338 1.6908,-4.5198 1.1276,-1.1854 2.6059,-2.2124 4.4405,-3.0793 1.8337,-0.8685 3.8985,-1.622 6.2036,-2.2595 2.3029,-0.64 4.5819,-1.3232 6.8372,-2.0528 9.0224,-2.9234 15.624,-6.8261 19.8105,-11.7102 4.1788,-4.8833 6.2722,-11.2496 6.2722,-19.0993 0,-5.2963 -0.9159,-10.0879 -2.7502,-14.3787 -1.8314,-4.2906 -4.511,-7.9654 -8.0337,-11.0234 -3.5268,-3.058 -7.8514,-5.4309 -12.9724,-7.1198 -5.1234,-1.6883 -10.927,-2.5339 -17.411,-2.5339 -13.4439,0 -25.8942,3.8801 -37.3629,11.6399 l 11.8454,21.6355 c 4.1344,-3.5609 8.2216,-6.2105 12.2641,-7.9419 4.0408,-1.7353 8.036,-2.6022 11.9843,-2.6022 4.5108,0 7.871,1.0038 10.0795,3.0113 2.2082,2.0095 3.3145,4.2905 3.3145,6.8479 0,1.5517 -0.2826,2.8953 -0.8472,4.0382 -0.563,1.1404 -1.5044,2.1912 -2.8202,3.1522 -1.3164,0.9564 -3.0308,1.847 -5.1449,2.6685 -2.1147,0.8201 -4.6758,1.7311 -7.6828,2.7369 -3.5736,1.0981 -7.0749,2.3051 -10.5052,3.63 -3.4304,1.3224 -6.4842,3.0815 -9.1612,5.2702 -2.6819,2.1917 -4.845,4.9527 -6.4866,8.2865 -1.6458,3.3299 -2.467,7.5523 -2.467,12.6669 0,5.11 0.8686,9.7432 2.6085,13.8968 1.7373,4.1542 4.1794,7.7125 7.3315,10.6807 3.1459,2.9665 6.9996,5.271 11.5583,6.9148 4.5601,1.6433 9.6573,2.4653 15.2991,2.4653 5.26,0 10.7595,-0.7083 16.4951,-2.1231 5.7305,-1.4165 11.2309,-3.4906 16.4951,-6.2294 z"
         style="fill:#4178bc;fill-opacity:1;fill-rule:nonzero;stroke:none"
         id="path18" />
      <path
         d="m 387.3104,299.3026 c -3.009,2.3731 -6.016,4.1281 -9.0247,5.2707 -3.0087,1.143 -5.9213,1.7119 -8.7395,1.7119 -3.5736,0 -6.4865,-0.8218 -8.74,-2.4653 -2.2573,-1.6433 -3.3832,-3.7877 -3.3832,-6.435 0,-1.8252 0.563,-3.3338 1.6906,-4.5198 1.1276,-1.1854 2.6067,-2.2124 4.4405,-3.0793 1.8337,-0.8685 3.8993,-1.622 6.2039,-2.2595 2.3026,-0.64 4.5816,-1.3232 6.8371,-2.0528 9.0247,-2.9234 15.6246,-6.8261 19.8103,-11.7102 4.1796,-4.8833 6.2725,-11.2496 6.2725,-19.0993 0,-5.2963 -0.9162,-10.0879 -2.7499,-14.3787 -1.8321,-4.2906 -4.5114,-7.9654 -8.034,-11.0234 -3.5263,-3.058 -7.8514,-5.4309 -12.9725,-7.1198 -5.123,-1.6883 -10.9269,-2.5339 -17.4112,-2.5339 -13.4433,0 -25.8939,3.8801 -37.362,11.6399 l 11.8448,21.6355 c 4.1346,-3.5609 8.2219,-6.2105 12.2644,-7.9419 4.0402,-1.7353 8.0354,-2.6022 11.9837,-2.6022 4.5117,0 7.871,1.0038 10.0797,3.0113 2.2085,2.0095 3.3146,4.2905 3.3146,6.8479 0,1.5517 -0.2821,2.8953 -0.8476,4.0382 -0.5624,1.1404 -1.5043,2.1912 -2.8202,3.1522 -1.3164,0.9564 -3.0299,1.847 -5.1446,2.6685 -2.114,0.8201 -4.6757,1.7311 -7.6827,2.7369 -3.5736,1.0981 -7.0744,2.3051 -10.5032,3.63 -3.4328,1.3224 -6.4865,3.0815 -9.1633,5.2702 -2.6813,2.1917 -4.8452,4.9527 -6.4868,8.2865 -1.6449,3.3299 -2.467,7.5523 -2.467,12.6669 0,5.11 0.8686,9.7432 2.6085,13.8968 1.7379,4.1542 4.1797,7.7125 7.3315,10.6807 3.1459,2.9665 7.0004,5.271 11.5585,6.9148 4.5604,1.6433 9.658,2.4653 15.2989,2.4653 5.2622,0 10.76,-0.7083 16.4951,-2.1231 5.7331,-1.4165 11.2309,-3.4906 16.4951,-6.2294 z"
         style="fill:#4178bc;fill-opacity:1;fill-rule:nonzero;stroke:none"
         id="path20" />
      <path
         d="m 14.9054,331.3908 h 43.9943 c 7.787,0 15.0956,-1.5256 21.9217,-4.5666 6.8247,-3.0479 12.7931,-7.0988 17.9014,-12.1573 5.106,-5.0592 9.1253,-10.9547 12.0614,-17.6811 2.9293,-6.728 4.3996,-13.7749 4.3996,-21.143 0,-7.2698 -1.4425,-14.2699 -4.3251,-20.9957 -2.8825,-6.7303 -6.8777,-12.6496 -11.9837,-17.7556 -5.1106,-5.1084 -11.075,-9.1854 -17.9036,-12.2281 -6.8244,-3.0476 -14.184,-4.5689 -22.0717,-4.5689 H 14.9054 Z m 26.17,-86.6359 h 6.8264 c 5.1596,0 13.3237,0.7832 17.3705,2.3562 4.0424,1.5704 7.4556,3.7318 10.2401,6.484 2.7797,2.7498 4.9028,6.0154 6.3709,9.7971 1.4661,3.7791 2.1999,7.9307 2.1999,12.4506 0,4.4212 -0.7577,8.5473 -2.277,12.3775 -1.5154,3.8307 -3.6658,7.1197 -6.446,9.8719 -2.7839,2.7482 -6.1971,4.9096 -10.2422,6.4825 -4.0441,1.5682 -8.5963,2.3579 -13.6508,2.3579 h -6.8286 z"
         style="fill:#4178bc;fill-opacity:1;fill-rule:nonzero;stroke:none"
         id="path22" />
      <path
         d="m 14.1562,197.7494 v 12.6734 h 2.7372 c 1.3138,0 2.3516,-0.1261 3.1118,-0.3767 0.8153,-0.2463 1.5577,-0.6653 2.2232,-1.2563 1.3462,-1.192 2.0183,-2.7607 2.0183,-4.7035 0,-1.9474 -0.7001,-3.5226 -2.1039,-4.7274 -0.7041,-0.6012 -1.4425,-1.021 -2.2147,-1.2563 -0.7211,-0.2355 -1.7438,-0.3532 -3.0671,-0.3532 z m 1.969,1.798 h 0.8881 c 0.8838,0 1.6197,0.0899 2.2064,0.2693 0.5865,0.1931 1.1149,0.4969 1.588,0.9119 0.9695,0.8601 1.4553,1.9795 1.4553,3.3577 0,1.3909 -0.4816,2.5168 -1.4383,3.3828 -0.8626,0.7705 -2.1333,1.1557 -3.8114,1.1557 h -0.8881 z"
         style="fill:#4178bc;fill-opacity:1;fill-rule:nonzero;stroke:none"
         id="path24" />
      <path
         d="m 26.0731,209.069 c 0,0.3232 0.1221,0.6035 0.3639,0.8365 0.2416,0.2359 0.5327,0.3535 0.8689,0.3535 0.3444,0 0.6375,-0.1176 0.8795,-0.3535 0.2438,-0.2287 0.364,-0.5114 0.364,-0.845 0,-0.3319 -0.1202,-0.6188 -0.364,-0.8541 -0.2352,-0.233 -0.5266,-0.3532 -0.871,-0.3532 -0.3422,0 -0.6358,0.1202 -0.8774,0.3532 -0.2418,0.2353 -0.3639,0.5222 -0.3639,0.8626 z m 2.1895,-11.3207 h -1.9024 v 7.9951 h 1.9024 z"
         style="fill:#4178bc;fill-opacity:1;fill-rule:nonzero;stroke:none"
         id="path26" />
      <path
         d="m 32.5723,193.3994 h -1.9029 v 12.3451 h 1.9029 v -0.8705 c 0.7487,0.7299 1.6005,1.0914 2.5529,1.0914 1.1319,0 2.0654,-0.4045 2.797,-1.2133 0.7449,-0.8067 1.1151,-1.8192 1.1151,-3.045 0,-1.1987 -0.3702,-2.1985 -1.1066,-2.9962 -0.7316,-0.794 -1.656,-1.1919 -2.7709,-1.1919 -0.9652,0 -1.8278,0.3767 -2.5875,1.1253 z m 4.5219,8.2984 c 0,0.7662 -0.214,1.3893 -0.6424,1.8709 -0.4342,0.4878 -0.9796,0.7299 -1.6409,0.7299 -0.6976,0 -1.2629,-0.2336 -1.6974,-0.7044 -0.4343,-0.4709 -0.6503,-1.0894 -0.6503,-1.8556 0,-0.7486 0.216,-1.3674 0.6503,-1.855 0.4283,-0.4751 0.9907,-0.7146 1.6889,-0.7146 0.6613,0 1.2024,0.2412 1.6324,0.7231 0.4386,0.4816 0.6594,1.0829 0.6594,1.8057"
         style="fill:#4178bc;fill-opacity:1;fill-rule:nonzero;stroke:none"
         id="path28" />
      <path
         d="m 47.1172,205.7445 h 1.9108 v -7.9951 h -1.9108 v 0.8371 c -0.7829,-0.7109 -1.6262,-1.0681 -2.5271,-1.0681 -1.1367,0 -2.0781,0.4002 -2.823,1.2005 -0.7384,0.8152 -1.1061,1.832 -1.1061,3.0517 0,1.2005 0.3677,2.1977 1.1061,2.998 0.7381,0.7982 1.6625,1.1962 2.7714,1.1962 0.9587,0 1.8187,-0.3804 2.5787,-1.1463 z m -4.513,-3.9739 c 0,-0.7636 0.2117,-1.3889 0.6332,-1.87 0.4343,-0.4884 0.9802,-0.7322 1.6416,-0.7322 0.7035,0 1.2707,0.2376 1.705,0.7062 0.4351,0.4881 0.6511,1.1063 0.6511,1.8555 0,0.7509 -0.216,1.3697 -0.6511,1.8556 -0.4343,0.4768 -0.9972,0.7146 -1.688,0.7146 -0.6546,0 -1.2031,-0.2421 -1.6416,-0.7237 -0.4342,-0.4853 -0.6502,-1.0871 -0.6502,-1.806"
         style="fill:#4178bc;fill-opacity:1;fill-rule:nonzero;stroke:none"
         id="path30" />
      <path
         d="m 51.4273,205.7445 h 1.9029 v -0.7146 c 0.3489,0.3575 0.6587,0.5995 0.9289,0.7316 0.2758,0.1355 0.6012,0.2033 0.9796,0.2033 0.5012,0 1.0253,-0.1559 1.5713,-0.4748 l -0.8688,-1.6909 c -0.3598,0.2506 -0.7127,0.3767 -1.0557,0.3767 -1.0397,0 -1.5553,-0.7594 -1.5553,-2.2807 v -4.1457 h -1.9029 z"
         style="fill:#4178bc;fill-opacity:1;fill-rule:nonzero;stroke:none"
         id="path32" />
      <path
         d="m 60.4877,204.0205 v -6.2699 h -1.9029 v 6.2699 h -0.8085 v 1.7229 h 0.8085 v 2.9319 h 1.9029 v -2.9319 h 1.4785 v -1.7229 z"
         style="fill:#4178bc;fill-opacity:1;fill-rule:nonzero;stroke:none"
         id="path34" />
      <path
         d="m 62.9725,209.069 c 0,0.3232 0.1219,0.6035 0.364,0.8365 0.2415,0.2359 0.5326,0.3535 0.8685,0.3535 0.3447,0 0.6378,-0.1176 0.8796,-0.3535 0.2441,-0.2287 0.3634,-0.5114 0.3634,-0.845 0,-0.3319 -0.1193,-0.6188 -0.3634,-0.8541 -0.2353,-0.233 -0.5264,-0.3532 -0.8711,-0.3532 -0.3427,0 -0.6355,0.1202 -0.877,0.3532 -0.2421,0.2353 -0.364,0.5222 -0.364,0.8626 z m 2.1892,-11.3207 h -1.9023 v 7.9951 h 1.9023 z"
         style="fill:#4178bc;fill-opacity:1;fill-rule:nonzero;stroke:none"
         id="path36" />
      <path
         d="m 67.57,205.7445 h 1.9023 v -0.7381 c 0.3666,0.3725 0.6789,0.623 0.938,0.7551 0.2736,0.1355 0.6222,0.2033 1.0395,0.2033 0.9289,0 1.6653,-0.3937 2.2065,-1.1809 0.595,0.7872 1.4037,1.1809 2.4245,1.1809 1.8532,0 2.7802,-1.0914 2.7802,-3.2737 v -4.9417 h -1.9092 v 4.4405 c 0,0.7662 -0.0963,1.3079 -0.2868,1.6268 -0.199,0.3229 -0.5216,0.4836 -0.9712,0.4836 -0.5247,0 -0.9073,-0.1928 -1.1472,-0.5757 -0.2395,-0.381 -0.3597,-0.9973 -0.3597,-1.8471 v -4.1281 h -1.9088 v 4.4175 c 0,1.423 -0.4235,2.1334 -1.2668,2.1334 -0.5375,0 -0.927,-0.1948 -1.1724,-0.5823 -0.2464,-0.3894 -0.3666,-1.0017 -0.3666,-1.8405 v -4.1281 H 67.57 Z"
         style="fill:#4178bc;fill-opacity:1;fill-rule:nonzero;stroke:none"
         id="path38" />
      <path
         d="m 88.7579,201.312 h -5.8981 c 0.0496,-0.6568 0.2699,-1.1792 0.6593,-1.5687 0.3878,-0.3827 0.8864,-0.5732 1.4959,-0.5732 0.4734,0 0.8626,0.1092 1.1727,0.3269 0.3064,0.2208 0.6508,0.6256 1.0403,1.2158 l 1.6053,-0.8711 c -0.2464,-0.4082 -0.5097,-0.7594 -0.7838,-1.0525 -0.2778,-0.2937 -0.5735,-0.5349 -0.8881,-0.7237 -0.3166,-0.188 -0.6588,-0.3269 -1.0228,-0.415 -0.3659,-0.0879 -0.7639,-0.1304 -1.1919,-0.1304 -1.2286,0 -2.215,0.383 -2.9574,1.1489 -0.745,0.773 -1.1174,1.7957 -1.1174,3.069 0,1.2649 0.3617,2.2876 1.0828,3.0705 0.7254,0.7705 1.6906,1.1583 2.8894,1.1583 1.2106,0 2.1699,-0.3745 2.874,-1.1259 0.6996,-0.7427 1.0483,-1.774 1.0483,-3.0943 z m -1.954,1.5111 c -0.2633,0.984 -0.9031,1.4766 -1.9173,1.4766 -0.2313,0 -0.447,-0.0346 -0.6503,-0.1032 -0.2032,-0.068 -0.3878,-0.1644 -0.5522,-0.2948 -0.1667,-0.1287 -0.3081,-0.2826 -0.4283,-0.4623 -0.1193,-0.182 -0.2075,-0.3875 -0.2693,-0.6163 z"
         style="fill:#4178bc;fill-opacity:1;fill-rule:nonzero;stroke:none"
         id="path40" />
      <path
         d="m 90.8368,205.7445 h 1.9108 v -0.7381 c 0.6636,0.6401 1.4128,0.9584 2.247,0.9584 0.959,0 1.7057,-0.2906 2.2383,-0.8771 0.4649,-0.4986 0.6959,-1.3098 0.6959,-2.4375 v -4.9008 H 96.018 v 4.4666 c 0,0.7874 -0.1134,1.3334 -0.3385,1.6324 -0.2203,0.3062 -0.6208,0.4604 -1.2005,0.4604 -0.631,0 -1.0786,-0.2033 -1.3436,-0.6078 -0.2591,-0.4005 -0.3878,-1.0981 -0.3878,-2.0928 v -3.8588 h -1.9108 z"
         style="fill:#4178bc;fill-opacity:1;fill-rule:nonzero;stroke:none"
         id="path42" />
      <path
         d="m 102.2885,204.0205 v -6.2699 h -1.9024 v 6.2699 h -0.8087 v 1.7229 h 0.8087 v 2.9319 h 1.9024 v -2.9319 h 1.4788 v -1.7229 z"
         style="fill:#4178bc;fill-opacity:1;fill-rule:nonzero;stroke:none"
         id="path44" />
      <path
         d="m 104.7903,201.8047 c 0,1.1556 0.4258,2.1359 1.2756,2.9469 0.8518,0.811 1.8896,1.2157 3.1113,1.2157 1.2286,0 2.2689,-0.409 3.1266,-1.2242 0.8456,-0.8153 1.2671,-1.8168 1.2671,-3.0028 0,-1.2005 -0.4257,-2.2036 -1.2756,-3.0149 -0.8577,-0.8025 -1.9065,-1.2053 -3.1521,-1.2053 -1.235,0 -2.268,0.4113 -3.1028,1.2308 -0.8328,0.8087 -1.2501,1.8278 -1.2501,3.0538 z m 1.9454,-0.0321 c 0,-0.8002 0.2183,-1.4317 0.6568,-1.8958 0.4519,-0.4731 1.0446,-0.7067 1.7847,-0.7067 0.7433,0 1.3377,0.2336 1.783,0.6976 0.4451,0.4646 0.6679,1.0852 0.6679,1.8641 0,0.7747 -0.2228,1.3978 -0.6679,1.8618 -0.4515,0.4708 -1.0448,0.7061 -1.783,0.7061 -0.7273,0 -1.3158,-0.2353 -1.7677,-0.7061 -0.449,-0.4708 -0.6738,-1.0786 -0.6738,-1.821"
         style="fill:#4178bc;fill-opacity:1;fill-rule:nonzero;stroke:none"
         id="path46" />
      <path
         d="m 126.9924,211.6137 h 1.9108 v -13.8631 h -1.9108 v 0.8365 c -0.7492,-0.7121 -1.5967,-1.0676 -2.5441,-1.0676 -1.1285,0 -2.0613,0.4003 -2.8037,1.1988 -0.7402,0.8152 -1.1084,1.8337 -1.1084,3.0535 0,1.1939 0.3682,2.1895 1.1084,2.9894 0.7296,0.8028 1.6523,1.205 2.7629,1.205 0.9626,0 1.8255,-0.383 2.5849,-1.1492 z m -4.5133,-9.8419 c 0,-0.7659 0.2117,-1.391 0.6332,-1.8726 0.4346,-0.4858 0.9806,-0.7296 1.6416,-0.7296 0.7044,0 1.2716,0.2353 1.7059,0.7061 0.4342,0.4858 0.6502,1.1041 0.6502,1.8555 0,0.7487 -0.216,1.3675 -0.6502,1.8533 -0.4343,0.4768 -0.9972,0.7146 -1.6889,0.7146 -0.6545,0 -1.2022,-0.2398 -1.6415,-0.7214 -0.4343,-0.4875 -0.6503,-1.0888 -0.6503,-1.8059"
         style="fill:#4178bc;fill-opacity:1;fill-rule:nonzero;stroke:none"
         id="path48" />
      <path
         d="m 131.0153,209.069 c 0,0.3232 0.1222,0.6035 0.364,0.8365 0.2415,0.2359 0.5326,0.3535 0.8688,0.3535 0.3444,0 0.6375,-0.1176 0.8796,-0.3535 0.2438,-0.2287 0.364,-0.5114 0.364,-0.845 0,-0.3319 -0.1202,-0.6188 -0.364,-0.8541 -0.2353,-0.233 -0.5267,-0.3532 -0.8711,-0.3532 -0.3421,0 -0.6358,0.1202 -0.8773,0.3532 -0.2418,0.2353 -0.364,0.5222 -0.364,0.8626 z m 2.1895,-11.3207 h -1.9023 v 7.9951 h 1.9023 z"
         style="fill:#4178bc;fill-opacity:1;fill-rule:nonzero;stroke:none"
         id="path50" />
      <path
         d="m 148.6959,208.5358 -1.5965,-0.9204 c -0.2999,0.5029 -0.5842,0.8323 -0.8561,0.9839 -0.2803,0.1777 -0.6443,0.2659 -1.0887,0.2659 -0.546,0 -0.9998,-0.1525 -1.3612,-0.4538 -0.36,-0.2931 -0.5395,-0.6679 -0.5395,-1.1149 0,-0.6208 0.4709,-1.1168 1.419,-1.4936 l 1.3028,-0.5181 c 1.0574,-0.4148 1.8321,-0.9227 2.3222,-1.5214 0.4901,-0.6018 0.7359,-1.3357 0.7359,-2.2045 0,-1.1665 -0.3997,-2.1291 -1.2005,-2.8911 -0.8067,-0.7662 -1.806,-1.1488 -3.0005,-1.1488 -1.1319,0 -2.0667,0.3251 -2.8049,0.9779 -0.7253,0.6525 -1.1817,1.5687 -1.3612,2.7496 l 1.9945,0.4283 c 0.0899,-0.7472 0.2483,-1.2605 0.4725,-1.5451 0.4071,-0.546 0.9975,-0.8201 1.7762,-0.8201 0.6123,0 1.1242,0.199 1.5307,0.5995 0.4045,0.4003 0.6078,0.9049 0.6078,1.5171 0,0.2486 -0.0346,0.4731 -0.1075,0.6787 -0.0703,0.2052 -0.1794,0.3937 -0.3293,0.5672 -0.1474,0.1712 -0.3422,0.3336 -0.5775,0.481 -0.2378,0.1522 -0.5204,0.2954 -0.8455,0.4326 l -1.2583,0.5096 c -1.787,0.7339 -2.6793,1.806 -2.6793,3.2162 0,0.9525 0.3741,1.7501 1.1233,2.3882 0.7492,0.646 1.6821,0.9695 2.7973,0.9695 1.5043,0 2.6793,-0.7104 3.5243,-2.1334"
         style="fill:#4178bc;fill-opacity:1;fill-rule:nonzero;stroke:none"
         id="path52" />
      <path
         d="m 157.4518,205.3996 v -2.452 c -0.4343,0.5131 -0.822,0.8663 -1.1664,1.0567 -0.3379,0.1971 -0.7359,0.2954 -1.192,0.2954 -0.7146,0 -1.3099,-0.2438 -1.7824,-0.7299 -0.4731,-0.4876 -0.7104,-1.0979 -0.7104,-1.8318 0,-0.7486 0.2288,-1.3648 0.6843,-1.8467 0.4623,-0.4816 1.0514,-0.7212 1.766,-0.7212 0.4555,0 0.8577,0.0942 1.2089,0.2869 0.3379,0.1862 0.7365,0.5479 1.192,1.0848 v -2.4392 c -0.7727,-0.3878 -1.5432,-0.5825 -2.3153,-0.5825 -1.2734,0 -2.3369,0.4005 -3.1952,1.1988 -0.8558,0.8042 -1.2841,1.8017 -1.2841,2.9959 0,1.192 0.4325,2.1997 1.3011,3.0192 0.8668,0.822 1.9326,1.2328 3.1949,1.2328 0.8113,0 1.5772,-0.1905 2.2986,-0.5672"
         style="fill:#4178bc;fill-opacity:1;fill-rule:nonzero;stroke:none"
         id="path54" />
      <path
         d="m 159.0066,209.069 c 0,0.3232 0.1219,0.6035 0.364,0.8365 0.2421,0.2359 0.5326,0.3535 0.8685,0.3535 0.3447,0 0.6384,-0.1176 0.8796,-0.3535 0.2441,-0.2287 0.364,-0.5114 0.364,-0.845 0,-0.3319 -0.1199,-0.6188 -0.364,-0.8541 -0.2353,-0.233 -0.5264,-0.3532 -0.8711,-0.3532 -0.3421,0 -0.6349,0.1202 -0.877,0.3532 -0.2421,0.2353 -0.364,0.5222 -0.364,0.8626 z m 2.1892,-11.3207 h -1.9023 v 7.9951 h 1.9023 z"
         style="fill:#4178bc;fill-opacity:1;fill-rule:nonzero;stroke:none"
         id="path56" />
      <path
         d="m 171.1006,201.312 h -5.8975 c 0.0491,-0.6568 0.2693,-1.1792 0.6588,-1.5687 0.3878,-0.3827 0.8864,-0.5732 1.4959,-0.5732 0.4733,0 0.8625,0.1092 1.1727,0.3269 0.3064,0.2208 0.6508,0.6256 1.0403,1.2158 l 1.6052,-0.8711 c -0.2463,-0.4082 -0.5096,-0.7594 -0.7837,-1.0525 -0.2781,-0.2937 -0.5735,-0.5349 -0.8881,-0.7237 -0.3167,-0.188 -0.6571,-0.3269 -1.0228,-0.415 -0.3659,-0.0879 -0.7639,-0.1304 -1.1922,-0.1304 -1.2283,0 -2.2147,0.383 -2.9571,1.1489 -0.745,0.773 -1.1149,1.7957 -1.1149,3.069 0,1.2649 0.3597,2.2876 1.0803,3.0705 0.7254,0.7705 1.6906,1.1583 2.8893,1.1583 1.2113,0 2.17,-0.3745 2.8741,-1.1259 0.6996,-0.7427 1.0482,-1.774 1.0482,-3.0943 l -0.009,-0.4346 z m -1.9539,1.5111 c -0.2633,0.984 -0.9025,1.4766 -1.9173,1.4766 -0.2314,0 -0.4474,-0.0346 -0.6503,-0.1032 -0.2016,-0.068 -0.3878,-0.1644 -0.5522,-0.2948 -0.1667,-0.1287 -0.3081,-0.2826 -0.4283,-0.4623 -0.1177,-0.182 -0.2075,-0.3875 -0.2693,-0.6163 z"
         style="fill:#4178bc;fill-opacity:1;fill-rule:nonzero;stroke:none"
         id="path58" />
      <path
         d="m 173.1801,205.7445 h 1.9109 v -0.7381 c 0.6636,0.6401 1.4127,0.9584 2.2476,0.9584 0.9583,0 1.705,-0.2906 2.2382,-0.8771 0.4643,-0.4986 0.6953,-1.3098 0.6953,-2.4375 v -4.9008 h -1.9108 v 4.4666 c 0,0.7874 -0.1134,1.3334 -0.3385,1.6324 -0.2202,0.3062 -0.6205,0.4604 -1.2004,0.4604 -0.631,0 -1.0786,-0.2033 -1.3437,-0.6078 -0.259,-0.4005 -0.3877,-1.0981 -0.3877,-2.0928 v -3.8588 h -1.9109 z"
         style="fill:#4178bc;fill-opacity:1;fill-rule:nonzero;stroke:none"
         id="path60" />
      <path
         d="m 185.4011,199.4899 h 4.8918 V 197.75 h -8.6607 l 5.3334,6.2725 h -4.201 v 1.7229 h 7.9608 z"
         style="fill:#4178bc;fill-opacity:1;fill-rule:nonzero;stroke:none"
         id="path62" />
      <path
         d="m 199.5741,201.312 h -5.8975 c 0.049,-0.6568 0.2693,-1.1792 0.6588,-1.5687 0.3875,-0.3827 0.8861,-0.5732 1.4958,-0.5732 0.4731,0 0.8646,0.1092 1.1727,0.3269 0.3061,0.2208 0.6508,0.6256 1.0403,1.2158 l 1.605,-0.8711 c -0.2463,-0.4082 -0.5094,-0.7594 -0.7832,-1.0525 -0.2758,-0.2937 -0.5737,-0.5349 -0.8878,-0.7237 -0.3175,-0.188 -0.6571,-0.3269 -1.0236,-0.415 -0.3657,-0.0879 -0.7637,-0.1304 -1.192,-0.1304 -1.2282,0 -2.2147,0.383 -2.9571,1.1489 -0.7449,0.773 -1.1174,1.7957 -1.1174,3.069 0,1.2649 0.362,2.2876 1.0834,3.0705 0.7248,0.7705 1.69,1.1583 2.8888,1.1583 1.2112,0 2.1696,-0.3745 2.874,-1.1259 0.6993,-0.7427 1.0483,-1.774 1.0483,-3.0943 l -0.009,-0.4346 z m -1.9539,1.5111 c -0.2628,0.984 -0.9026,1.4766 -1.9171,1.4766 -0.231,0 -0.4476,-0.0346 -0.6508,-0.1032 -0.2033,-0.068 -0.387,-0.1644 -0.5545,-0.2948 -0.1644,-0.1287 -0.3056,-0.2826 -0.4258,-0.4623 -0.1176,-0.182 -0.2075,-0.3875 -0.2693,-0.6163 z"
         style="fill:#4178bc;fill-opacity:1;fill-rule:nonzero;stroke:none"
         id="path64" />
      <path
         d="m 214.5586,208.626 h -5.2319 v -3.045 h 5.0802 v -1.798 h -5.0802 v -4.235 h 5.2319 v -1.798 h -7.2012 v 12.6734 h 7.2012 z"
         style="fill:#4178bc;fill-opacity:1;fill-rule:nonzero;stroke:none"
         id="path66" />
      <path
         d="m 223.1878,205.3996 v -2.452 c -0.4343,0.5131 -0.822,0.8663 -1.1664,1.0567 -0.3379,0.1971 -0.7359,0.2954 -1.192,0.2954 -0.7146,0 -1.3099,-0.2438 -1.7824,-0.7299 -0.4731,-0.4876 -0.711,-1.0979 -0.711,-1.8318 0,-0.7486 0.2294,-1.3648 0.6849,-1.8467 0.4623,-0.4816 1.0508,-0.7212 1.766,-0.7212 0.4555,0 0.8577,0.0942 1.2089,0.2869 0.3379,0.1862 0.7359,0.5479 1.192,1.0848 v -2.4392 c -0.7727,-0.3878 -1.5432,-0.5825 -2.3153,-0.5825 -1.2734,0 -2.3375,0.4005 -3.1952,1.1988 -0.8558,0.8042 -1.2841,1.8017 -1.2841,2.9959 0,1.192 0.4325,2.1997 1.2994,3.0192 0.8685,0.822 1.9343,1.2328 3.1969,1.2328 0.811,0 1.5772,-0.1905 2.2983,-0.5672"
         style="fill:#4178bc;fill-opacity:1;fill-rule:nonzero;stroke:none"
         id="path68" />
      <path
         d="m 224.6411,201.8047 c 0,1.1556 0.4261,2.1359 1.2759,2.9469 0.8493,0.811 1.8896,1.2157 3.1113,1.2157 1.2286,0 2.2689,-0.409 3.1266,-1.2242 0.8456,-0.8153 1.2671,-1.8168 1.2671,-3.0028 0,-1.2005 -0.4257,-2.2036 -1.2756,-3.0149 -0.8577,-0.8025 -1.9066,-1.2053 -3.1521,-1.2053 -1.2351,0 -2.2686,0.4113 -3.1028,1.2308 -0.8328,0.8087 -1.2504,1.8278 -1.2504,3.0538 z m 1.9455,-0.0321 c 0,-0.8002 0.2185,-1.4317 0.657,-1.8958 0.4513,-0.4731 1.0446,-0.7067 1.7847,-0.7067 0.7424,0 1.3377,0.2336 1.7827,0.6976 0.4453,0.4646 0.6681,1.0852 0.6681,1.8641 0,0.7747 -0.2228,1.3978 -0.6681,1.8618 -0.4513,0.4708 -1.0445,0.7061 -1.7827,0.7061 -0.7274,0 -1.3158,-0.2353 -1.7677,-0.7061 -0.4495,-0.4708 -0.674,-1.0786 -0.674,-1.821"
         style="fill:#4178bc;fill-opacity:1;fill-rule:nonzero;stroke:none"
         id="path70" />
      <path
         d="m 235.434,205.7445 h 1.9112 v -0.7381 c 0.6636,0.6401 1.4119,0.9584 2.2467,0.9584 0.959,0 1.7059,-0.2906 2.2385,-0.8771 0.4646,-0.4986 0.6956,-1.3098 0.6956,-2.4375 v -4.9008 h -1.9114 v 4.4666 c 0,0.7874 -0.1133,1.3334 -0.3378,1.6324 -0.2203,0.3062 -0.6205,0.4604 -1.2005,0.4604 -0.6316,0 -1.0786,-0.2033 -1.3442,-0.6078 -0.2585,-0.4005 -0.3869,-1.0981 -0.3869,-2.0928 v -3.8588 h -1.9112 z"
         style="fill:#4178bc;fill-opacity:1;fill-rule:nonzero;stroke:none"
         id="path72" />
      <path
         d="m 244.5358,201.8047 c 0,1.1556 0.4258,2.1359 1.2759,2.9469 0.8515,0.811 1.8896,1.2157 3.1113,1.2157 1.2282,0 2.2686,-0.409 3.1263,-1.2242 0.8459,-0.8153 1.2674,-1.8168 1.2674,-3.0028 0,-1.2005 -0.4258,-2.2036 -1.2759,-3.0149 -0.8577,-0.8025 -1.9066,-1.2053 -3.1518,-1.2053 -1.2351,0 -2.2689,0.4113 -3.1028,1.2308 -0.8328,0.8087 -1.2504,1.8278 -1.2504,3.0538 z m 1.9454,-0.0321 c 0,-0.8002 0.2186,-1.4317 0.6571,-1.8958 0.4513,-0.4731 1.0446,-0.7067 1.7847,-0.7067 0.7424,0 1.3374,0.2336 1.7827,0.6976 0.4453,0.4646 0.6678,1.0852 0.6678,1.8641 0,0.7747 -0.2225,1.3978 -0.6678,1.8618 -0.4513,0.4708 -1.0446,0.7061 -1.7827,0.7061 -0.7274,0 -1.3159,-0.2353 -1.7677,-0.7061 -0.4496,-0.4708 -0.6741,-1.0786 -0.6741,-1.821"
         style="fill:#4178bc;fill-opacity:1;fill-rule:nonzero;stroke:none"
         id="path74" />
      <path
         d="m 255.3287,205.7445 h 1.9024 v -0.7381 c 0.3659,0.3725 0.6783,0.623 0.9374,0.7551 0.2741,0.1355 0.6227,0.2033 1.0403,0.2033 0.9286,0 1.6645,-0.3937 2.2062,-1.1809 0.595,0.7872 1.4037,1.1809 2.4247,1.1809 1.8531,0 2.7794,-1.0914 2.7794,-3.2737 v -4.9417 h -1.9083 v 4.4405 c 0,0.7662 -0.0966,1.3079 -0.2871,1.6268 -0.199,0.3229 -0.5222,0.4836 -0.9734,0.4836 -0.5225,0 -0.9051,-0.1928 -1.1455,-0.5757 -0.2395,-0.381 -0.3592,-0.9973 -0.3592,-1.8471 v -4.1281 h -1.9088 v 4.4175 c 0,1.423 -0.4235,2.1334 -1.2668,2.1334 -0.5375,0 -0.9267,-0.1948 -1.173,-0.5823 -0.2441,-0.3894 -0.3659,-1.0017 -0.3659,-1.8405 v -4.1281 h -1.9024 z"
         style="fill:#4178bc;fill-opacity:1;fill-rule:nonzero;stroke:none"
         id="path76" />
      <path
         d="m 268.7326,209.069 c 0,0.3232 0.1219,0.6035 0.364,0.8365 0.2421,0.2359 0.5326,0.3535 0.8685,0.3535 0.3447,0 0.6378,-0.1176 0.8796,-0.3535 0.2441,-0.2287 0.364,-0.5114 0.364,-0.845 0,-0.3319 -0.1199,-0.6188 -0.364,-0.8541 -0.2353,-0.233 -0.5264,-0.3532 -0.8711,-0.3532 -0.3421,0 -0.6349,0.1202 -0.877,0.3532 -0.2421,0.2353 -0.364,0.5222 -0.364,0.8626 z m 2.1892,-11.3207 h -1.9023 v 7.9951 h 1.9023 z"
         style="fill:#4178bc;fill-opacity:1;fill-rule:nonzero;stroke:none"
         id="path78" />
      <path
         d="m 279.7367,205.3996 v -2.452 c -0.4345,0.5131 -0.822,0.8663 -1.1667,1.0567 -0.3379,0.1971 -0.7356,0.2954 -1.192,0.2954 -0.7146,0 -1.3096,-0.2438 -1.7821,-0.7299 -0.4731,-0.4876 -0.7104,-1.0979 -0.7104,-1.8318 0,-0.7486 0.2288,-1.3648 0.6843,-1.8467 0.4623,-0.4816 1.0514,-0.7212 1.7657,-0.7212 0.4558,0 0.8578,0.0942 1.2115,0.2869 0.3354,0.1862 0.7339,0.5479 1.1897,1.0848 v -2.4392 c -0.773,-0.3878 -1.5434,-0.5825 -2.3156,-0.5825 -1.2733,0 -2.3366,0.4005 -3.1949,1.1988 -0.8561,0.8042 -1.2844,1.8017 -1.2844,2.9959 0,1.192 0.4326,2.1997 1.3014,3.0192 0.8668,0.822 1.9326,1.2328 3.1949,1.2328 0.811,0 1.5772,-0.1905 2.2986,-0.5672"
         style="fill:#4178bc;fill-opacity:1;fill-rule:nonzero;stroke:none"
         id="path80" />
      <path
         d="m 282.0271,211.6137 h 1.9023 v -6.5333 c 0.6764,0.5902 1.4208,0.8858 2.2386,0.8858 0.9311,0 1.6735,-0.2931 2.23,-0.8773 0.4748,-0.5097 0.7126,-1.3224 0.7126,-2.4398 v -4.8985 h -1.9023 v 4.7273 c 0,0.6401 -0.116,1.1041 -0.3512,1.391 -0.2336,0.2871 -0.6098,0.4302 -1.1277,0.4302 -0.6655,0 -1.1318,-0.1989 -1.4037,-0.5995 -0.2659,-0.4039 -0.3963,-1.0995 -0.3963,-2.0843 v -3.8647 h -1.9023 z"
         style="fill:#4178bc;fill-opacity:1;fill-rule:nonzero;stroke:none"
         id="path82" />
      <path
         d="m 299.0149,201.312 h -5.8981 c 0.0491,-0.6568 0.2699,-1.1792 0.6568,-1.5687 0.3895,-0.3827 0.8881,-0.5732 1.4984,-0.5732 0.4725,0 0.8646,0.1092 1.1727,0.3269 0.3056,0.2208 0.6503,0.6256 1.0397,1.2158 l 1.605,-0.8711 c -0.2463,-0.4082 -0.5094,-0.7594 -0.7829,-1.0525 -0.2787,-0.2937 -0.574,-0.5349 -0.8881,-0.7237 -0.3166,-0.188 -0.6571,-0.3269 -1.0227,-0.415 -0.3666,-0.0879 -0.7646,-0.1304 -1.1923,-0.1304 -1.2283,0 -2.2153,0.383 -2.9577,1.1489 -0.7443,0.773 -1.1168,1.7957 -1.1168,3.069 0,1.2649 0.3614,2.2876 1.0828,3.0705 0.7254,0.7705 1.6906,1.1583 2.8888,1.1583 1.2112,0 2.1696,-0.3745 2.8741,-1.1259 0.7001,-0.7427 1.0488,-1.774 1.0488,-3.0943 l -0.008,-0.4346 z m -1.954,1.5111 c -0.2633,0.984 -0.9031,1.4766 -1.9173,1.4766 -0.2313,0 -0.4473,-0.0346 -0.6511,-0.1032 -0.2033,-0.068 -0.387,-0.1644 -0.5539,-0.2948 -0.165,-0.1287 -0.3062,-0.2826 -0.4258,-0.4623 -0.1202,-0.182 -0.2075,-0.3875 -0.2698,-0.6163 z"
         style="fill:#4178bc;fill-opacity:1;fill-rule:nonzero;stroke:none"
         id="path84" />
      <path
         d="m 313.9316,201.312 h -5.898 c 0.0516,-0.6568 0.2698,-1.1792 0.6593,-1.5687 0.3869,-0.3827 0.8856,-0.5732 1.4959,-0.5732 0.4725,0 0.8645,0.1092 1.1726,0.3269 0.3056,0.2208 0.6503,0.6256 1.0398,1.2158 l 1.605,-0.8711 c -0.2464,-0.4082 -0.5088,-0.7594 -0.7832,-1.0525 -0.2759,-0.2937 -0.5732,-0.5349 -0.8881,-0.7237 -0.3147,-0.188 -0.6568,-0.3269 -1.0228,-0.415 -0.3662,-0.0879 -0.7642,-0.1304 -1.1919,-0.1304 -1.2283,0 -2.2153,0.383 -2.9577,1.1489 -0.7444,0.773 -1.1152,1.7957 -1.1152,3.069 0,1.2649 0.3598,2.2876 1.0812,3.0705 0.7254,0.7705 1.6906,1.1583 2.8885,1.1583 1.2115,0 2.1705,-0.3745 2.8743,-1.1259 0.6999,-0.7427 1.0488,-1.774 1.0488,-3.0943 l -0.008,-0.4346 z m -1.9522,1.5111 c -0.265,0.984 -0.9051,1.4766 -1.9193,1.4766 -0.2311,0 -0.4471,-0.0346 -0.6509,-0.1032 -0.2007,-0.068 -0.3869,-0.1644 -0.5519,-0.2948 -0.1669,-0.1287 -0.3081,-0.2826 -0.4277,-0.4623 -0.1177,-0.182 -0.2075,-0.3875 -0.2699,-0.6163 z"
         style="fill:#4178bc;fill-opacity:1;fill-rule:nonzero;stroke:none"
         id="path86" />
      <path
         d="m 329.0933,208.5358 -1.5959,-0.9204 c -0.2996,0.5029 -0.5842,0.8323 -0.8566,0.9839 -0.2801,0.1777 -0.6435,0.2659 -1.0888,0.2659 -0.546,0 -0.9998,-0.1525 -1.359,-0.4538 -0.3614,-0.2931 -0.5417,-0.6679 -0.5417,-1.1149 0,-0.6208 0.4709,-1.1168 1.4191,-1.4936 l 1.3011,-0.5181 c 1.0593,-0.4148 1.8337,-0.9227 2.3238,-1.5214 0.4904,-0.6018 0.7364,-1.3357 0.7364,-2.2045 0,-1.1665 -0.4002,-2.1291 -1.2004,-2.8911 -0.8068,-0.7662 -1.8065,-1.1488 -3.0002,-1.1488 -1.1327,0 -2.0673,0.3251 -2.8057,0.9779 -0.7254,0.6525 -1.1815,1.5687 -1.3612,2.7496 l 1.9944,0.4283 c 0.0899,-0.7472 0.2483,-1.2605 0.4734,-1.5451 0.4062,-0.546 0.9972,-0.8201 1.7762,-0.8201 0.612,0 1.1234,0.199 1.5298,0.5995 0.4046,0.4003 0.6078,0.9049 0.6078,1.5171 0,0.2486 -0.0363,0.4731 -0.1069,0.6787 -0.0708,0.2052 -0.18,0.3937 -0.3299,0.5672 -0.1474,0.1712 -0.3422,0.3336 -0.5774,0.481 -0.2379,0.1522 -0.5199,0.2954 -0.8456,0.4326 l -1.2583,0.5096 c -1.787,0.7339 -2.6793,1.806 -2.6793,3.2162 0,0.9525 0.3747,1.7501 1.1233,2.3882 0.7492,0.646 1.6821,0.9695 2.7973,0.9695 1.5043,0 2.6793,-0.7104 3.5243,-2.1334"
         style="fill:#4178bc;fill-opacity:1;fill-rule:nonzero;stroke:none"
         id="path88" />
      <path
         d="m 333.6993,204.0205 v -6.2699 h -1.9023 v 6.2699 h -0.8085 v 1.7229 h 0.8085 v 2.9319 h 1.9023 v -2.9319 h 1.4791 v -1.7229 z"
         style="fill:#4178bc;fill-opacity:1;fill-rule:nonzero;stroke:none"
         id="path90" />
      <path
         d="m 342.6925,205.7445 h 1.9108 v -7.9951 h -1.9108 v 0.8371 c -0.7838,-0.7109 -1.6271,-1.0681 -2.5276,-1.0681 -1.1387,0 -2.0778,0.4002 -2.8228,1.2005 -0.7381,0.8152 -1.1064,1.832 -1.1064,3.0517 0,1.2005 0.3683,2.1977 1.1064,2.998 0.7384,0.7982 1.6608,1.1962 2.7717,1.1962 0.9584,0 1.8187,-0.3804 2.5787,-1.1463 z m -4.5139,-3.9739 c 0,-0.7636 0.2123,-1.3889 0.6341,-1.87 0.4343,-0.4884 0.9797,-0.7322 1.6413,-0.7322 0.7038,0 1.271,0.2376 1.7053,0.7062 0.4343,0.4881 0.6508,1.1063 0.6508,1.8555 0,0.7509 -0.2165,1.3697 -0.6508,1.8556 -0.4343,0.4768 -0.9972,0.7146 -1.6883,0.7146 -0.6551,0 -1.2027,-0.2421 -1.6416,-0.7237 -0.4342,-0.4853 -0.6508,-1.0871 -0.6508,-1.806"
         style="fill:#4178bc;fill-opacity:1;fill-rule:nonzero;stroke:none"
         id="path92" />
      <path
         d="m 348.963,204.0205 v -6.2699 h -1.9029 v 6.2699 h -0.8087 v 1.7229 h 0.8087 v 2.9319 h 1.9029 v -2.9319 h 1.4783 v -1.7229 z"
         style="fill:#4178bc;fill-opacity:1;fill-rule:nonzero;stroke:none"
         id="path94" />
      <path
         d="m 351.4479,209.069 c 0,0.3232 0.1219,0.6035 0.3634,0.8365 0.2418,0.2359 0.5332,0.3535 0.8691,0.3535 0.3447,0 0.6375,-0.1176 0.8796,-0.3535 0.244,-0.2287 0.3634,-0.5114 0.3634,-0.845 0,-0.3319 -0.1194,-0.6188 -0.3634,-0.8541 -0.2353,-0.233 -0.5264,-0.3532 -0.8711,-0.3532 -0.3427,0 -0.6358,0.1202 -0.8776,0.3532 -0.2415,0.2353 -0.3634,0.5222 -0.3634,0.8626 z m 2.1892,-11.3207 h -1.9029 v 7.9951 h 1.9029 z"
         style="fill:#4178bc;fill-opacity:1;fill-rule:nonzero;stroke:none"
         id="path96" />
      <path
         d="m 360.8291,204.3822 -1.5729,-0.8135 c -0.2463,0.4926 -0.5545,0.7407 -0.9201,0.7407 -0.1755,0 -0.3255,-0.0576 -0.4496,-0.1693 -0.1219,-0.1134 -0.184,-0.2565 -0.184,-0.432 0,-0.3061 0.366,-0.61 1.0982,-0.9116 1.0099,-0.4198 1.688,-0.8067 2.0369,-1.1642 0.3487,-0.3554 0.5242,-0.8345 0.5242,-1.4357 0,-0.7728 -0.2931,-1.4191 -0.8796,-1.9369 -0.5689,-0.4944 -1.2558,-0.7385 -2.0625,-0.7385 -1.3808,0 -2.3567,0.6528 -2.9319,1.9602 l 1.6223,0.7296 c 0.2268,-0.381 0.3977,-0.6264 0.5156,-0.7296 0.231,-0.2075 0.5071,-0.3101 0.828,-0.3101 0.644,0 0.9632,0.2846 0.9632,0.8518 0,0.3294 -0.2486,0.6358 -0.7429,0.9178 -0.1925,0.0947 -0.3853,0.1863 -0.5758,0.2742 -0.1905,0.0873 -0.3852,0.1751 -0.5819,0.2692 -0.5519,0.2634 -0.9414,0.5247 -1.1682,0.7881 -0.2851,0.3336 -0.4303,0.7636 -0.4303,1.2903 0,0.6934 0.2458,1.2691 0.7359,1.7226 0.5012,0.4538 1.1109,0.6826 1.8255,0.6826 1.0531,0 1.8386,-0.5309 2.3499,-1.5857"
         style="fill:#4178bc;fill-opacity:1;fill-rule:nonzero;stroke:none"
         id="path98" />
      <path
         d="m 365.0292,204.0205 v -6.2699 h -1.9023 v 6.2699 h -0.809 v 1.7229 h 0.809 v 2.9319 h 1.9023 v -2.9319 h 1.4791 v -1.7229 z"
         style="fill:#4178bc;fill-opacity:1;fill-rule:nonzero;stroke:none"
         id="path100" />
      <path
         d="m 367.5141,209.069 c 0,0.3232 0.1219,0.6035 0.3639,0.8365 0.2421,0.2359 0.5327,0.3535 0.8686,0.3535 0.3447,0 0.6383,-0.1176 0.8796,-0.3535 0.244,-0.2287 0.3639,-0.5114 0.3639,-0.845 0,-0.3319 -0.1199,-0.6188 -0.3639,-0.8541 -0.2353,-0.233 -0.5264,-0.3532 -0.8711,-0.3532 -0.3422,0 -0.635,0.1202 -0.8771,0.3532 -0.242,0.2353 -0.3639,0.5222 -0.3639,0.8626 z m 2.1892,-11.3207 h -1.9024 v 7.9951 h 1.9024 z"
         style="fill:#4178bc;fill-opacity:1;fill-rule:nonzero;stroke:none"
         id="path102" />
      <path
         d="m 378.5182,205.3996 v -2.452 c -0.4346,0.5131 -0.8221,0.8663 -1.1668,1.0567 -0.3379,0.1971 -0.7356,0.2954 -1.1919,0.2954 -0.7146,0 -1.3096,-0.2438 -1.7827,-0.7299 -0.4726,-0.4876 -0.7104,-1.0979 -0.7104,-1.8318 0,-0.7486 0.2293,-1.3648 0.6848,-1.8467 0.4624,-0.4816 1.0506,-0.7212 1.7657,-0.7212 0.4559,0 0.8578,0.0942 1.2093,0.2869 0.3379,0.1862 0.7356,0.5479 1.192,1.0848 v -2.4392 c -0.773,-0.3878 -1.5435,-0.5825 -2.3156,-0.5825 -1.2734,0 -2.3372,0.4005 -3.195,1.1988 -0.856,0.8042 -1.2844,1.8017 -1.2844,2.9959 0,1.192 0.4326,2.1997 1.3014,3.0192 0.8669,0.822 1.9327,1.2328 3.195,1.2328 0.811,0 1.5772,-0.1905 2.2986,-0.5672"
         style="fill:#4178bc;fill-opacity:1;fill-rule:nonzero;stroke:none"
         id="path104" />
      <path
         d="m 380.808,211.6137 h 1.9023 v -6.5333 c 0.6764,0.5902 1.4213,0.8858 2.2386,0.8858 0.9311,0 1.6735,-0.2931 2.23,-0.8773 0.4753,-0.5097 0.7126,-1.3224 0.7126,-2.4398 v -4.8985 h -1.9023 v 4.7273 c 0,0.6401 -0.116,1.1041 -0.3512,1.391 -0.2331,0.2871 -0.6098,0.4302 -1.1277,0.4302 -0.6655,0 -1.1321,-0.1989 -1.4037,-0.5995 -0.2653,-0.4039 -0.3963,-1.0995 -0.3963,-2.0843 v -3.8647 h -1.9023 z"
         style="fill:#4178bc;fill-opacity:1;fill-rule:nonzero;stroke:none"
         id="path106" />
      <path
         d="m 397.7957,201.312 h -5.9 c 0.0516,-0.6568 0.2719,-1.1792 0.6613,-1.5687 0.3875,-0.3827 0.8861,-0.5732 1.4959,-0.5732 0.4731,0 0.8645,0.1092 1.1727,0.3269 0.3061,0.2208 0.6508,0.6256 1.0403,1.2158 l 1.605,-0.8711 c -0.2464,-0.4082 -0.5094,-0.7594 -0.7838,-1.0525 -0.2758,-0.2937 -0.5732,-0.5349 -0.8881,-0.7237 -0.3166,-0.188 -0.6568,-0.3269 -1.0227,-0.415 -0.3657,-0.0879 -0.7637,-0.1304 -1.192,-0.1304 -1.2283,0 -2.2147,0.383 -2.9571,1.1489 -0.745,0.773 -1.1152,1.7957 -1.1152,3.069 0,1.2649 0.3592,2.2876 1.0806,3.0705 0.7254,0.7705 1.6906,1.1583 2.8894,1.1583 1.2106,0 2.1696,-0.3745 2.874,-1.1259 0.6993,-0.7427 1.0483,-1.774 1.0483,-3.0943 l -0.009,-0.4346 z m -1.9539,1.5111 c -0.2633,0.984 -0.9031,1.4766 -1.9176,1.4766 -0.231,0 -0.447,-0.0346 -0.6503,-0.1032 -0.2012,-0.068 -0.3875,-0.1644 -0.5519,-0.2948 -0.1669,-0.1287 -0.3107,-0.2826 -0.4283,-0.4623 -0.1176,-0.182 -0.2075,-0.3875 -0.2693,-0.6163 z"
         style="fill:#4178bc;fill-opacity:1;fill-rule:nonzero;stroke:none"
         id="path108" />
      <path
         d="m 157.9317,79.6484 45.9329,13.7005 -17.7296,52.3765 -46.7379,-14.1009 v 45.127 H 79.3633 V 132.0273 L 33.4321,147.3389 14.0907,94.9601 61.2332,80.0507 31.4164,44.193 79.7678,10.7484 108.3736,47.0132 138.1898,8.7367 186.9412,42.1764 Z"
         style="fill:#4178bc;fill-opacity:1;fill-rule:nonzero;stroke:none"
         id="path110" />
      <path
         d="m 364.7684,80.3268 45.9332,13.7004 -17.7296,52.3763 -46.7382,-14.1007 v 45.1267 H 286.2 V 132.7056 L 240.2697,148.0173 220.928,95.6384 268.0702,80.7287 238.2531,44.871 286.6048,11.4265 315.2103,47.6912 345.0268,9.415 l 48.752,33.4397 z"
         style="fill:#4178bc;fill-opacity:1;fill-rule:nonzero;stroke:none"
         id="path112" />
      <path
         d="m 266.0306,112.6253 h 0.978 c 0.9754,0 1.7847,0.1032 2.4307,0.3081 0.6466,0.2166 1.2283,0.563 1.7507,1.0338 1.0675,0.9743 1.6027,2.2451 1.6027,3.8095 0,1.5792 -0.5284,2.8565 -1.5832,3.8392 -0.9501,0.8754 -2.3502,1.3116 -4.2009,1.3116 h -0.978 z m -2.1704,-2.0387 v 14.3805 h 3.018 c 1.4462,0 2.5889,-0.1415 3.4279,-0.4261 0.8992,-0.2826 1.7161,-0.7574 2.4503,-1.4272 1.4831,-1.3522 2.2255,-3.1332 2.2255,-5.3371 0,-2.2088 -0.7747,-3.9974 -2.3196,-5.3649 -0.7764,-0.6831 -1.5877,-1.1579 -2.4418,-1.4255 -0.7939,-0.265 -1.9193,-0.3997 -3.3789,-0.3997 z"
         style="fill:#ffffff;fill-opacity:1;fill-rule:nonzero;stroke:none"
         id="path114" />
      <path
         d="m 279.0249,110.5866 h -2.097 v 9.0712 h 2.097 z m -2.4137,12.8444 c 0,0.3659 0.1347,0.6825 0.4023,0.9499 0.2656,0.2675 0.5868,0.4005 0.9589,0.4005 0.3787,0 0.7019,-0.133 0.9695,-0.4005 0.2676,-0.2589 0.398,-0.5797 0.398,-0.959 0,-0.3784 -0.1304,-0.7019 -0.398,-0.9695 -0.2614,-0.2673 -0.5822,-0.3996 -0.961,-0.3996 -0.3789,0 -0.7018,0.1323 -0.9674,0.3996 -0.2676,0.2676 -0.4023,0.5933 -0.4023,0.9786"
         style="fill:#ffffff;fill-opacity:1;fill-rule:nonzero;stroke:none"
         id="path116" />
      <path
         d="m 288.3762,115.0656 c 0,0.8714 -0.2356,1.5775 -0.7081,2.1235 -0.4774,0.5536 -1.0809,0.8302 -1.8066,0.8302 -0.7704,0 -1.3926,-0.2656 -1.8725,-0.8024 -0.4768,-0.5332 -0.7163,-1.2351 -0.7163,-2.1039 0,-0.8516 0.2395,-1.5534 0.7163,-2.1036 0.4731,-0.5417 1.0939,-0.811 1.8623,-0.811 0.7274,0 1.3286,0.2741 1.7992,0.8175 0.4841,0.5479 0.7257,1.2328 0.7257,2.0497 z m -4.9816,-9.4158 h -2.0977 v 14.0085 h 2.0977 v -0.9861 c 0.8254,0.8254 1.7634,1.2387 2.8116,1.2387 1.2478,0 2.2771,-0.4598 3.0816,-1.3802 0.822,-0.9116 1.2328,-2.063 1.2328,-3.454 0,-1.3612 -0.4091,-2.4931 -1.2218,-3.4007 -0.807,-0.9009 -1.8255,-1.3505 -3.0563,-1.3505 -1.0616,0 -2.0114,0.4261 -2.8479,1.2759 z"
         style="fill:#ffffff;fill-opacity:1;fill-rule:nonzero;stroke:none"
         id="path118" />
      <path
         d="m 294.0891,115.1501 c 0,-0.8688 0.233,-1.5755 0.6976,-2.1231 0.4768,-0.5539 1.0806,-0.828 1.806,-0.828 0.7769,0 1.4037,0.265 1.881,0.7999 0.4794,0.5528 0.7189,1.2546 0.7189,2.1039 0,0.8518 -0.2395,1.5536 -0.7189,2.1061 -0.4773,0.5394 -1.0978,0.811 -1.8615,0.811 -0.7214,0 -1.3226,-0.2741 -1.8059,-0.8201 -0.4799,-0.5538 -0.7172,-1.2367 -0.7172,-2.0497 z m 4.9731,4.5065 h 2.1061 v -9.0714 h -2.1061 v 0.9524 c -0.862,-0.8093 -1.7906,-1.2112 -2.7862,-1.2112 -1.252,0 -2.2918,0.4518 -3.1096,1.3586 -0.8127,0.927 -1.2217,2.0801 -1.2217,3.4651 0,1.3589 0.409,2.4931 1.2217,3.4002 0.811,0.9073 1.8304,1.3592 3.0538,1.3592 1.0573,0 2.0029,-0.4349 2.842,-1.3034 z"
         style="fill:#ffffff;fill-opacity:1;fill-rule:nonzero;stroke:none"
         id="path120" />
      <path
         d="m 303.4494,119.6578 h 2.0971 v -0.811 c 0.3849,0.4065 0.7253,0.6806 1.025,0.8305 0.3016,0.1559 0.6636,0.233 1.0785,0.233 0.5545,0 1.1302,-0.1797 1.7331,-0.5411 l -0.9583,-1.9176 c -0.398,0.2846 -0.7875,0.4277 -1.1665,0.4277 -1.1424,0 -1.7118,-0.8626 -1.7118,-2.5892 v -4.7035 h -2.0971 z"
         style="fill:#ffffff;fill-opacity:1;fill-rule:nonzero;stroke:none"
         id="path122" />
      <path
         d="m 313.052,117.7027 v -7.1155 h -2.097 v 7.1155 h -0.8949 v 1.9556 h 0.8949 v 3.3256 h 2.097 v -3.3256 h 1.6283 v -1.9556 z"
         style="fill:#ffffff;fill-opacity:1;fill-rule:nonzero;stroke:none"
         id="path124" />
      <path
         d="m 317.8193,110.5866 h -2.095 v 9.0712 h 2.095 z m -2.4117,12.8444 c 0,0.3659 0.1327,0.6825 0.402,0.9499 0.2659,0.2675 0.5842,0.4005 0.9567,0.4005 0.3809,0 0.7018,-0.133 0.9694,-0.4005 0.2676,-0.2589 0.4003,-0.5797 0.4003,-0.959 0,-0.3784 -0.1327,-0.7019 -0.4003,-0.9695 -0.2608,-0.2673 -0.58,-0.3996 -0.9584,-0.3996 -0.3793,0 -0.7018,0.1323 -0.9677,0.3996 -0.2693,0.2676 -0.402,0.5933 -0.402,0.9786"
         style="fill:#ffffff;fill-opacity:1;fill-rule:nonzero;stroke:none"
         id="path126" />
      <path
         d="m 320.0941,119.6578 h 2.0954 v -0.8388 c 0.4039,0.4232 0.7486,0.7084 1.0355,0.8583 0.3022,0.1559 0.6849,0.233 1.1446,0.233 1.0253,0 1.8343,-0.4473 2.429,-1.3419 0.6617,0.8946 1.5517,1.3419 2.6751,1.3419 2.0418,0 3.0645,-1.2393 3.0645,-3.7173 v -5.6064 h -2.1055 v 5.0392 c 0,0.8691 -0.1072,1.4831 -0.3167,1.8445 -0.2165,0.3665 -0.5737,0.5479 -1.07,0.5479 -0.578,0 -0.9995,-0.2177 -1.2649,-0.6503 -0.2613,-0.4342 -0.3934,-1.1318 -0.3934,-2.0953 v -4.686 h -2.1064 v 5.0117 c 0,1.6137 -0.4641,2.4199 -1.397,2.4199 -0.5907,0 -1.019,-0.2202 -1.2909,-0.6613 -0.2692,-0.4402 -0.4039,-1.1361 -0.4039,-2.0843 v -4.686 h -2.0954 z"
         style="fill:#ffffff;fill-opacity:1;fill-rule:nonzero;stroke:none"
         id="path128" />
      <path
         d="m 340.9121,116.3432 c -0.2912,1.1169 -0.9973,1.6756 -2.1147,1.6756 -0.2543,0 -0.4943,-0.0363 -0.7163,-0.116 -0.2228,-0.0788 -0.4283,-0.1905 -0.6103,-0.3336 -0.184,-0.1474 -0.3404,-0.3232 -0.4708,-0.5284 -0.1304,-0.2055 -0.2288,-0.4365 -0.2997,-0.6976 z m 2.1503,-1.7141 h -6.4993 c 0.0559,-0.7469 0.2957,-1.3377 0.7257,-1.7787 0.4283,-0.436 0.9777,-0.6526 1.6481,-0.6526 0.5218,0 0.9541,0.1242 1.2946,0.3722 0.3362,0.2483 0.7188,0.7061 1.1446,1.3785 l 1.7719,-0.9865 c -0.2735,-0.4665 -0.5624,-0.8668 -0.8662,-1.1962 -0.3039,-0.3342 -0.6296,-0.606 -0.9786,-0.8195 -0.3463,-0.2165 -0.7253,-0.3724 -1.1276,-0.4734 -0.4022,-0.0963 -0.8407,-0.1479 -1.3138,-0.1479 -1.3522,0 -2.4392,0.4351 -3.2593,1.3036 -0.8172,0.8774 -1.2302,2.037 -1.2302,3.4864 0,1.4334 0.3977,2.5931 1.1936,3.4812 0.8008,0.8779 1.8624,1.3141 3.1847,1.3141 1.3352,0 2.3925,-0.426 3.1672,-1.2775 0.7705,-0.8434 1.1557,-2.0135 1.1557,-3.5119 z"
         style="fill:#ffffff;fill-opacity:1;fill-rule:nonzero;stroke:none"
         id="path130" />
      <path
         d="m 344.9747,119.6578 h 2.1056 v -0.8388 c 0.7316,0.7274 1.5576,1.0913 2.476,1.0913 1.0568,0 1.8788,-0.3319 2.4673,-0.9975 0.5094,-0.5646 0.7642,-1.4873 0.7642,-2.7666 v -5.5596 h -2.1039 v 5.0669 c 0,0.8949 -0.1241,1.5112 -0.3722,1.8533 -0.242,0.3487 -0.6825,0.5222 -1.3226,0.5222 -0.6956,0 -1.19,-0.231 -1.4831,-0.6891 -0.2846,-0.4536 -0.4257,-1.2453 -0.4257,-2.3772 v -4.3761 h -2.1056 z"
         style="fill:#ffffff;fill-opacity:1;fill-rule:nonzero;stroke:none"
         id="path132" />
      <path
         d="m 357.2138,117.7027 v -7.1155 h -2.097 v 7.1155 h -0.8944 v 1.9556 h 0.8944 v 3.3256 h 2.097 v -3.3256 h 1.6285 v -1.9556 z"
         style="fill:#ffffff;fill-opacity:1;fill-rule:nonzero;stroke:none"
         id="path134" />
      <path
         d="m 361.7359,115.1501 c 0,-0.9051 0.2398,-1.6245 0.7251,-2.1512 0.4987,-0.5349 1.1512,-0.7999 1.9647,-0.7999 0.8221,0 1.4766,0.2607 1.9667,0.7897 0.4901,0.5284 0.7365,1.2328 0.7365,2.1141 0,0.8838 -0.2464,1.5882 -0.7365,2.1146 -0.4986,0.5352 -1.1514,0.8025 -1.9667,0.8025 -0.7982,0 -1.4485,-0.2673 -1.9454,-0.8025 -0.4986,-0.5332 -0.7444,-1.2223 -0.7444,-2.0673 z m -2.1444,0.0383 c 0,1.3096 0.4709,2.4245 1.408,3.3429 0.9374,0.9204 2.0801,1.3782 3.4262,1.3782 1.3547,0 2.5036,-0.4621 3.4475,-1.3867 0.9312,-0.927 1.3975,-2.0611 1.3975,-3.409 0,-1.3615 -0.4688,-2.4998 -1.408,-3.4177 -0.9436,-0.9136 -2.0993,-1.3697 -3.4733,-1.3697 -1.3611,0 -2.4993,0.4646 -3.4177,1.3975 -0.9204,0.9178 -1.3802,2.0735 -1.3802,3.4645"
         style="fill:#ffffff;fill-opacity:1;fill-rule:nonzero;stroke:none"
         id="path136" />
      <path
         d="m 269.8044,91.5126 c 0,-0.6095 0.1627,-1.1058 0.4896,-1.4868 0.3342,-0.3895 0.756,-0.5822 1.2648,-0.5822 0.5437,0 0.9827,0.1862 1.3164,0.5604 0.3362,0.3877 0.5045,0.8796 0.5045,1.4748 0,0.595 -0.1683,1.0894 -0.5045,1.4763 -0.3337,0.3767 -0.7685,0.5672 -1.3037,0.5672 -0.5045,0 -0.9263,-0.1922 -1.2665,-0.5757 -0.3336,-0.3869 -0.5006,-0.8643 -0.5006,-1.434 z m 3.4838,7.8225 h 1.4743 V 88.3134 h -1.4743 v 0.6678 c -0.578,-0.5672 -1.2351,-0.8492 -1.9647,-0.8492 -0.8688,0 -1.5919,0.3166 -2.1674,0.9518 -0.5697,0.6483 -0.8543,1.4576 -0.8543,2.4288 0,0.9465 0.2846,1.7379 0.8543,2.3737 0.5664,0.6401 1.2773,0.9584 2.1351,0.9584 0.7449,0 1.4088,-0.3013 1.997,-0.9116 z"
         style="fill:#ffffff;fill-opacity:1;fill-rule:nonzero;stroke:none"
         id="path138" />
      <path
         d="m 277.7383,98.826 1.3056,-0.5072 -1.8618,-3.7343 -0.9887,0.4107 z"
         style="fill:#ffffff;fill-opacity:1;fill-rule:nonzero;stroke:none"
         id="path140" />
      <path
         d="m 288.8152,100.1897 h -5.5488 v -3.3262 h 5.3861 v -1.9624 h -5.3861 v -4.6242 h 5.5488 v -1.9624 h -7.6354 v 13.8371 h 7.6354 z"
         style="fill:#ffffff;fill-opacity:1;fill-rule:nonzero;stroke:none"
         id="path142" />
      <path
         d="m 297.5978,96.6682 v -2.6813 c -0.4598,0.5624 -0.8728,0.9477 -1.2345,1.1577 -0.3597,0.214 -0.7812,0.3231 -1.2648,0.3231 -0.7599,0 -1.389,-0.2675 -1.8918,-0.7982 -0.5006,-0.5309 -0.7512,-1.2005 -0.7512,-1.9987 0,-0.8198 0.2421,-1.4919 0.7257,-2.016 0.4875,-0.5264 1.1148,-0.7897 1.8725,-0.7897 0.4833,0 0.9094,0.1026 1.2819,0.3149 0.3571,0.2007 0.7786,0.597 1.2622,1.1835 v -2.6649 c -0.8172,-0.4215 -1.6373,-0.6352 -2.4542,-0.6352 -1.3504,0 -2.4806,0.4362 -3.388,1.3073 -0.9093,0.8796 -1.3632,1.969 -1.3632,3.272 0,1.3037 0.4604,2.4035 1.3808,3.3001 0.9201,0.8966 2.0497,1.3437 3.3897,1.3437 0.8603,0 1.6713,-0.2075 2.4349,-0.6183"
         style="fill:#ffffff;fill-opacity:1;fill-rule:nonzero;stroke:none"
         id="path144" />
      <path
         d="m 305.9977,96.6682 v -2.6813 c -0.4623,0.5624 -0.873,0.9477 -1.237,1.1577 -0.3597,0.214 -0.7812,0.3231 -1.2623,0.3231 -0.7619,0 -1.3909,-0.2675 -1.8921,-0.7982 -0.5029,-0.5309 -0.7534,-1.2005 -0.7534,-1.9987 0,-0.8198 0.242,-1.4919 0.7256,-2.016 0.4901,-0.5264 1.1149,-0.7897 1.8751,-0.7897 0.4833,0 0.9091,0.1026 1.2816,0.3149 0.3549,0.2007 0.7789,0.597 1.2625,1.1835 v -2.6649 c -0.8172,-0.4215 -1.6392,-0.6352 -2.4568,-0.6352 -1.3478,0 -2.478,0.4362 -3.3857,1.3073 -0.9093,0.8796 -1.3648,1.969 -1.3648,3.272 0,1.3037 0.4623,2.4035 1.3824,3.3001 0.9179,0.8966 2.0498,1.3437 3.3874,1.3437 0.8603,0 1.6713,-0.2075 2.4375,-0.6183"
         style="fill:#ffffff;fill-opacity:1;fill-rule:nonzero;stroke:none"
         id="path146" />
      <path
         d="m 313.4832,93.8531 c -0.2826,1.0766 -0.9607,1.6135 -2.035,1.6135 -0.2446,0 -0.4757,-0.0383 -0.6891,-0.1111 -0.2186,-0.0751 -0.4113,-0.182 -0.5885,-0.3232 -0.176,-0.1414 -0.3277,-0.3081 -0.4538,-0.5071 -0.1245,-0.1973 -0.2208,-0.4218 -0.2869,-0.6721 z m 2.0693,-1.6477 h -6.2555 c 0.0536,-0.7195 0.2868,-1.2884 0.7001,-1.7125 0.4108,-0.4166 0.9397,-0.629 1.5857,-0.629 0.5003,0 0.9159,0.1219 1.2453,0.3598 0.3209,0.2395 0.6891,0.6823 1.1024,1.3266 l 1.7008,-0.9499 c -0.2608,-0.4496 -0.5412,-0.8323 -0.8297,-1.154 -0.2937,-0.3183 -0.6081,-0.5797 -0.944,-0.7872 -0.3336,-0.2052 -0.6959,-0.3574 -1.0853,-0.4538 -0.387,-0.0941 -0.8068,-0.1415 -1.2623,-0.1415 -1.3011,0 -2.3477,0.4176 -3.1351,1.2547 -0.792,0.8433 -1.1835,1.9598 -1.1835,3.3508 0,1.3824 0.381,2.4999 1.1472,3.3534 0.7679,0.8416 1.7912,1.2631 3.0645,1.2631 1.2838,0 2.3003,-0.409 3.0473,-1.2266 0.7407,-0.8152 1.1106,-1.9389 1.1106,-3.3789 l -0.008,-0.475 z"
         style="fill:#ffffff;fill-opacity:1;fill-rule:nonzero;stroke:none"
         id="path148" />
      <path
         d="m 319.4076,88.3151 h -2.0183 v 15.1364 h 2.0183 z"
         style="fill:#ffffff;fill-opacity:1;fill-rule:nonzero;stroke:none"
         id="path150" />
      <path
         d="m 323.6102,88.3151 h -2.0182 v 15.1364 h 2.0182 z"
         style="fill:#ffffff;fill-opacity:1;fill-rule:nonzero;stroke:none"
         id="path152" />
      <path
         d="m 331.6782,93.8531 c -0.2826,1.0766 -0.9609,1.6135 -2.0353,1.6135 -0.2438,0 -0.4748,-0.0383 -0.6891,-0.1111 -0.2182,-0.0751 -0.4107,-0.182 -0.5884,-0.3232 -0.1752,-0.1414 -0.3274,-0.3081 -0.4536,-0.5071 -0.1244,-0.1973 -0.2202,-0.4218 -0.2871,-0.6721 z m 2.069,-1.6477 h -6.2552 c 0.0539,-0.7195 0.2869,-1.2884 0.6999,-1.7125 0.4107,-0.4166 0.9397,-0.629 1.5857,-0.629 0.5011,0 0.9161,0.1219 1.2455,0.3598 0.3209,0.2395 0.6891,0.6823 1.1021,1.3266 l 1.7017,-0.9499 c -0.2617,-0.4496 -0.5417,-0.8323 -0.8306,-1.154 -0.2931,-0.3183 -0.6077,-0.5797 -0.9439,-0.7872 -0.3337,-0.2052 -0.6951,-0.3574 -1.0846,-0.4538 -0.3877,-0.0941 -0.8067,-0.1415 -1.2631,-0.1415 -1.3011,0 -2.3473,0.4176 -3.1348,1.2547 -0.7917,0.8433 -1.1835,1.9598 -1.1835,3.3508 0,1.3824 0.381,2.4999 1.1469,3.3534 0.7688,0.8416 1.7915,1.2631 3.0648,1.2631 1.2836,0 2.3004,-0.409 3.047,-1.2266 0.7407,-0.8152 1.1106,-1.9389 1.1106,-3.3789 l -0.008,-0.475 z"
         style="fill:#ffffff;fill-opacity:1;fill-rule:nonzero;stroke:none"
         id="path154" />
      <path
         d="m 335.5841,97.0432 h 2.0267 v -0.8067 c 0.7044,0.6999 1.4979,1.0488 2.3817,1.0488 1.0165,0 1.8108,-0.3192 2.378,-0.9587 0.4875,-0.5417 0.7339,-1.432 0.7339,-2.6623 v -5.3498 h -2.0268 v 4.8748 c 0,0.862 -0.1176,1.4553 -0.3555,1.7847 -0.2352,0.3361 -0.6587,0.5006 -1.2733,0.5006 -0.6695,0 -1.1446,-0.2203 -1.4272,-0.6631 -0.2736,-0.4345 -0.4108,-1.1962 -0.4108,-2.2833 v -4.2137 h -2.0267 z"
         style="fill:#ffffff;fill-opacity:1;fill-rule:nonzero;stroke:none"
         id="path156" />
      <path
         d="m 348.177,90.2157 h 5.1888 v -1.9006 h -9.1845 l 5.6542,6.8482 h -4.4538 v 1.8794 h 8.4422 z"
         style="fill:#ffffff;fill-opacity:1;fill-rule:nonzero;stroke:none"
         id="path158" />
      <path
         d="m 356.5386,92.706 c 0,-0.8366 0.2245,-1.5171 0.6738,-2.0438 0.4581,-0.5307 1.0381,-0.7983 1.7374,-0.7983 0.7475,0 1.3504,0.2571 1.8107,0.7728 0.4598,0.5309 0.6911,1.2047 0.6911,2.0242 0,0.8198 -0.2313,1.4941 -0.6911,2.0268 -0.4603,0.5181 -1.0573,0.7789 -1.7912,0.7789 -0.6953,0 -1.2733,-0.2633 -1.7399,-0.7897 -0.4598,-0.5309 -0.6908,-1.1897 -0.6908,-1.9709 z m 4.7869,4.3378 h 2.0248 v -8.7293 h -2.0248 v 0.9142 c -0.83,-0.7747 -1.7249,-1.1648 -2.679,-1.1648 -1.207,0 -2.2068,0.4352 -2.9943,1.3079 -0.7855,0.8901 -1.1749,2.0033 -1.1749,3.3342 0,1.3096 0.3894,2.3989 1.1749,3.272 0.7812,0.8736 1.7618,1.3079 2.9384,1.3079 1.0162,0 1.9279,-0.4198 2.7349,-1.2546 z"
         style="fill:#ffffff;fill-opacity:1;fill-rule:nonzero;stroke:none"
         id="path160" />
      <path
         d="m 283.8101,68.5256 c 0,-0.5437 -0.0873,-1.374 -0.2628,-2.4908 -0.1734,-1.1174 -0.2613,-1.9565 -0.2613,-2.5212 -0.6806,0 -1.9794,0.0409 -3.903,0.1202 -0.9701,0.0383 -1.6694,0.0576 -2.0977,0.0576 -2.5424,0 -4.3974,-0.0576 -5.5616,-0.1778 h -0.2055 c -0.2522,0 -0.3767,0.0899 -0.3767,0.2634 0,0.1752 1.2308,0.8838 3.6978,2.1274 1.4553,0.7359 2.6303,1.6883 3.5246,2.8547 0.8924,1.164 1.3399,2.3281 1.3399,3.4946 0,1.0483 -0.3208,1.8958 -0.9609,2.5486 -0.6423,0.6483 -1.4746,0.976 -2.5058,0.976 -0.9505,0 -1.7294,-0.2523 -2.3307,-0.7577 -0.6012,-0.5054 -0.9008,-0.9907 -0.9008,-1.4553 0,-0.1947 0.0467,-0.3166 0.1457,-0.3657 0.0958,-0.0473 0.4513,-0.1457 1.0633,-0.2914 0.6097,-0.1454 0.9161,-0.4705 0.9161,-0.9759 0,-0.3487 -0.1202,-0.6461 -0.364,-0.8881 -0.242,-0.2416 -0.5394,-0.3634 -0.8881,-0.3634 -0.4861,0 -0.9034,0.2094 -1.254,0.6267 -0.3487,0.4173 -0.5221,0.9184 -0.5221,1.4984 0,1.0675 0.4858,1.9667 1.455,2.6963 0.972,0.7274 2.1549,1.0913 3.5524,1.0913 1.5925,0 2.8658,-0.447 3.8182,-1.3399 0.9499,-0.8923 1.4273,-1.9128 1.4273,-3.058 0,-1.573 -0.9803,-3.0107 -2.9384,-4.3118 -0.3921,-0.2523 -1.0812,-0.6469 -2.0693,-1.1792 -0.9887,-0.5326 -1.6396,-0.8603 -1.9539,-0.9763 -0.1565,-0.0382 -0.2438,-0.0768 -0.2631,-0.115 0,-0.0389 0.1752,-0.0686 0.5281,-0.0882 1.8,-0.0575 3.3619,-0.0683 4.6911,-0.0295 1.1148,0.021 1.8042,0.1559 2.0673,0.4088 0.2633,0.25 0.4858,0.9609 0.6587,2.1268 0.0584,0.3852 0.1137,0.6248 0.1633,0.7126 0.0468,0.0856 0.1409,0.1304 0.2778,0.1304 0.1947,0 0.2931,-0.1151 0.2931,-0.3486"
         style="fill:#ffffff;fill-opacity:1;fill-rule:nonzero;stroke:none"
         id="path162" />
      <path
         d="m 297.3813,69.9534 c 0,1.7847 -0.4301,3.2309 -1.2904,4.3398 -0.8626,1.1064 -1.9902,1.6586 -3.3831,1.6586 -1.3357,0 -2.4185,-0.5868 -3.2531,-1.7612 -0.8325,-1.1749 -1.2472,-2.7054 -1.2472,-4.5884 0,-1.9412 0.5519,-3.4642 1.6543,-4.5709 0.7934,-0.7962 1.6838,-1.1962 2.6702,-1.1962 1.5687,0 2.8358,0.6911 3.8053,2.0693 0.6976,0.9887 1.044,2.3391 1.044,4.049 z m 2.4482,-0.2934 c 0,-2.0177 -0.9243,-3.6785 -2.7666,-4.9799 -1.4003,-0.9887 -2.9233,-1.4848 -4.5734,-1.4848 -1.9412,0 -3.6082,0.6398 -4.9949,1.9216 -1.389,1.2818 -2.0823,2.816 -2.0823,4.6006 0,1.1665 0.3146,2.2689 0.9462,3.3067 0.6309,1.0397 1.4808,1.8598 2.5483,2.461 1.3207,0.7384 2.6989,1.1066 4.1346,1.1066 0.8754,0 1.7677,-0.1887 2.6796,-0.5672 0.9116,-0.3792 1.6603,-0.8668 2.2445,-1.4706 1.241,-1.2818 1.864,-2.9123 1.864,-4.894"
         style="fill:#ffffff;fill-opacity:1;fill-rule:nonzero;stroke:none"
         id="path164" />
      <path
         d="m 313.7216,68.5256 c 0,-0.5437 -0.0879,-1.374 -0.2631,-2.4908 -0.1735,-1.1174 -0.2611,-1.9565 -0.2611,-2.5212 -0.6805,0 -1.9797,0.0409 -3.9033,0.1202 -0.9694,0.0383 -1.6696,0.0576 -2.097,0.0576 -2.5424,0 -4.3983,-0.0576 -5.5622,-0.1778 h -0.2058 c -0.2522,0 -0.3767,0.0899 -0.3767,0.2634 0,0.1752 1.2308,0.8838 3.6981,2.1274 1.4553,0.7359 2.6303,1.6883 3.5249,2.8547 0.8923,1.164 1.3396,2.3281 1.3396,3.4946 0,1.0483 -0.3209,1.8958 -0.9609,2.5486 -0.6418,0.6483 -1.474,0.976 -2.5061,0.976 -0.9499,0 -1.7289,-0.2523 -2.3304,-0.7577 -0.6012,-0.5054 -0.9008,-0.9907 -0.9008,-1.4553 0,-0.1947 0.0473,-0.3166 0.1454,-0.3657 0.0964,-0.0473 0.4512,-0.1457 1.0635,-0.2914 0.6103,-0.1454 0.9159,-0.4705 0.9159,-0.9759 0,-0.3487 -0.1196,-0.6461 -0.3634,-0.8881 -0.2421,-0.2416 -0.5391,-0.3634 -0.8881,-0.3634 -0.4858,0 -0.9031,0.2094 -1.2543,0.6267 -0.349,0.4173 -0.5224,0.9184 -0.5224,1.4984 0,1.0675 0.4858,1.9667 1.4553,2.6963 0.9717,0.7274 2.1551,1.0913 3.5546,1.0913 1.59,0 2.8633,-0.447 3.8157,-1.3399 0.9499,-0.8923 1.4276,-1.9128 1.4276,-3.058 0,-1.573 -0.9806,-3.0107 -2.9387,-4.3118 -0.3912,-0.2523 -1.0803,-0.6469 -2.069,-1.1792 -0.9888,-0.5326 -1.639,-0.8603 -1.954,-0.9763 -0.1559,-0.0382 -0.2437,-0.0768 -0.2633,-0.115 0,-0.0389 0.176,-0.0686 0.529,-0.0882 1.7991,-0.0575 3.3618,-0.0683 4.691,-0.0295 1.1143,0.021 1.8034,0.1559 2.0667,0.4088 0.2634,0.25 0.4859,0.9609 0.6594,2.1268 0.0575,0.3852 0.1134,0.6248 0.1627,0.7126 0.047,0.0856 0.1412,0.1304 0.2784,0.1304 0.1947,0 0.2928,-0.1151 0.2928,-0.3486"
         style="fill:#ffffff;fill-opacity:1;fill-rule:nonzero;stroke:none"
         id="path166" />
      <path
         d="m 326.5948,63.1077 c 0,-1.7076 -0.6825,-3.1651 -2.0437,-4.3699 -1.3607,-1.2024 -3.0175,-1.8042 -4.9712,-1.8042 -1.2345,0 -2.2875,0.2979 -3.1563,0.8881 -0.8694,0.591 -1.3037,1.3056 -1.3037,2.1401 0,0.4283 0.1457,0.7815 0.4436,1.0636 0.2928,0.2826 0.6696,0.4215 1.1251,0.4215 0.9354,0 1.3995,-0.4258 1.3995,-1.2818 0,-0.4065 -0.2736,-0.8813 -0.8238,-1.4273 -0.1091,-0.0964 -0.1644,-0.1924 -0.1644,-0.2911 0,-0.1925 0.267,-0.3957 0.8045,-0.6097 0.5369,-0.214 1.0547,-0.3209 1.5517,-0.3209 1.1701,0 2.1268,0.4258 2.876,1.2793 0.9777,1.1284 1.4655,2.6237 1.4655,4.4878 0,1.5324 -0.5003,2.7456 -1.5043,3.6402 -0.5219,0.4471 -1.3139,0.6806 -2.3732,0.6996 -0.6588,0 -0.9845,0.0964 -0.9845,0.2911 0,0.154 0.2506,0.2634 0.7557,0.3209 0.5049,0.0581 1.044,0.2336 1.6155,0.5222 0.574,0.2914 0.9972,0.623 1.2674,0.9912 0.5045,0.6801 0.7568,1.5724 0.7568,2.6788 0,1.2631 -0.4555,2.224 -1.3671,2.8851 -0.5071,0.3489 -1.1835,0.5241 -2.037,0.5241 -0.9737,0 -1.7127,-0.2055 -2.2156,-0.612 -0.4082,-0.3294 -0.6114,-0.6315 -0.6114,-0.9031 0,-0.1947 0.2438,-0.3399 0.7274,-0.4388 0.7381,-0.1539 1.1083,-0.5519 1.1083,-1.192 0,-0.3486 -0.1219,-0.6417 -0.3659,-0.8753 -0.2418,-0.231 -0.5502,-0.3487 -0.9159,-0.3487 -0.4666,0 -0.8603,0.1715 -1.1812,0.5094 -0.3209,0.3404 -0.4791,0.7535 -0.4791,1.237 0,0.9905 0.4403,1.8017 1.3241,2.433 0.8838,0.6316 2.0251,0.9459 3.422,0.9459 1.5925,0 2.8701,-0.3676 3.8307,-1.106 0.961,-0.7387 1.4403,-1.7184 1.4403,-2.9427 0,-1.2027 -0.4793,-2.213 -1.4403,-3.0257 -0.9606,-0.8178 -2.2382,-1.3014 -3.8307,-1.4595 l -0.0278,-0.0856 c 1.5134,-0.0193 2.7096,-0.2997 3.5802,-0.8431 1.5346,-0.9524 2.3028,-2.2926 2.3028,-4.0215"
         style="fill:#ffffff;fill-opacity:1;fill-rule:nonzero;stroke:none"
         id="path168" />
      <path
         d="m 335.9432,69.3122 h -8.0079 v 1.5131 h 8.0079 z"
         style="fill:#ffffff;fill-opacity:1;fill-rule:nonzero;stroke:none"
         id="path170" />
      <path
         d="m 349.3695,68.5256 c 0,-0.5437 -0.0873,-1.374 -0.2633,-2.4908 -0.1729,-1.1174 -0.2608,-1.9565 -0.2608,-2.5212 -0.6806,0 -1.9794,0.0409 -3.9036,0.1202 -0.9695,0.0383 -1.6688,0.0576 -2.0971,0.0576 -2.5424,0 -4.3974,-0.0576 -5.5621,-0.1778 h -0.205 c -0.2528,0 -0.3767,0.0899 -0.3767,0.2634 0,0.1752 1.2302,0.8838 3.6981,2.1274 1.4553,0.7359 2.6297,1.6883 3.5243,2.8547 0.8924,1.164 1.3394,2.3281 1.3394,3.4946 0,1.0483 -0.3209,1.8958 -0.9601,2.5486 -0.6426,0.6483 -1.4749,0.976 -2.5067,0.976 -0.9499,0 -1.7288,-0.2523 -2.3301,-0.7577 -0.6018,-0.5054 -0.9008,-0.9907 -0.9008,-1.4553 0,-0.1947 0.0467,-0.3166 0.1451,-0.3657 0.0964,-0.0473 0.4519,-0.1457 1.0639,-0.2914 0.6097,-0.1454 0.9161,-0.4705 0.9161,-0.9759 0,-0.3487 -0.1202,-0.6461 -0.364,-0.8881 -0.242,-0.2416 -0.5394,-0.3634 -0.8881,-0.3634 -0.4858,0 -0.9034,0.2094 -1.254,0.6267 -0.3487,0.4173 -0.5221,0.9184 -0.5221,1.4984 0,1.0675 0.4858,1.9667 1.4553,2.6963 0.9711,0.7274 2.1546,1.0913 3.554,1.0913 1.59,0 2.8639,-0.447 3.8158,-1.3399 0.9504,-0.8923 1.4272,-1.9128 1.4272,-3.058 0,-1.573 -0.9796,-3.0107 -2.9378,-4.3118 -0.3918,-0.2523 -1.0809,-0.6469 -2.0699,-1.1792 -0.9881,-0.5326 -1.639,-0.8603 -1.9531,-0.9763 -0.1567,-0.0382 -0.2446,-0.0768 -0.2633,-0.115 0,-0.0389 0.1752,-0.0686 0.5284,-0.0882 1.7997,-0.0575 3.3619,-0.0683 4.6908,-0.0295 1.1151,0.021 1.8042,0.1559 2.0676,0.4088 0.263,0.25 0.4858,0.9609 0.6587,2.1268 0.0581,0.3852 0.1134,0.6248 0.1624,0.7126 0.0474,0.0856 0.1415,0.1304 0.2784,0.1304 0.1947,0 0.2931,-0.1151 0.2931,-0.3486"
         style="fill:#ffffff;fill-opacity:1;fill-rule:nonzero;stroke:none"
         id="path172" />
      <path
         d="m 362.7964,76.0694 c 0,-0.0989 -0.0491,-0.2251 -0.1457,-0.379 -0.1948,-0.3319 -0.4859,-0.839 -0.8754,-1.5174 -0.3486,-0.5672 -0.8727,-1.4298 -1.5729,-2.5979 -3.8818,-6.4588 -5.8246,-10.4735 -5.8246,-12.0481 0,-0.2741 0.0595,-0.4088 0.1751,-0.4088 0.0791,0 0.2719,0.1455 0.5843,0.4366 0.2117,0.1947 0.4836,0.2905 0.8135,0.2905 0.9907,0 1.4851,-0.4274 1.4851,-1.2815 0,-0.4278 -0.1627,-0.7767 -0.4944,-1.0483 -0.3319,-0.2718 -0.7492,-0.407 -1.252,-0.407 -0.6208,0 -1.1169,0.1947 -1.4851,0.5799 -0.3682,0.3901 -0.5545,0.9227 -0.5545,1.6033 0,1.1064 0.6891,3.0002 2.0673,5.6815 0.7002,1.3569 2.0311,3.7174 3.9909,7.075 l 1.1067,1.8938 h -5.5344 c -1.5341,0 -2.4349,-0.0388 -2.7091,-0.1159 -0.4064,-0.1177 -0.7273,-0.7382 -0.9609,-1.8635 -0.1559,-0.7577 -0.3487,-1.1361 -0.58,-1.1361 -0.2157,0 -0.3209,0.0983 -0.3209,0.2931 0,0.1734 0.0474,0.4342 0.1432,0.7854 l 0.5842,3.5524 c 0.0389,0.2906 0.165,0.5817 0.3793,0.8748 1.1446,-0.0578 2.6405,-0.0876 4.4853,-0.0876 3.107,0 4.7273,0.0128 4.8619,0.0425 l 1.2819,0.0451 c 0.2352,0 0.3512,-0.0876 0.3512,-0.2628"
         style="fill:#ffffff;fill-opacity:1;fill-rule:nonzero;stroke:none"
         id="path174" />
      <path
         d="m 59.1919,111.9478 h 0.9786 c 0.9754,0 1.7846,0.1026 2.4332,0.3081 0.646,0.216 1.2283,0.563 1.7501,1.0338 1.0681,0.9734 1.6008,2.2445 1.6008,3.8089 0,1.5795 -0.5264,2.8571 -1.5832,3.8393 -0.9507,0.8753 -2.3502,1.3121 -4.2009,1.3121 h -0.9786 z m -2.1696,-2.0395 v 14.381 h 3.0172 c 1.4491,0 2.5914,-0.1412 3.4305,-0.4258 0.8989,-0.2826 1.7166,-0.7577 2.4483,-1.4272 1.4831,-1.353 2.228,-3.1334 2.228,-5.3377 0,-2.2081 -0.7753,-3.9977 -2.3204,-5.3651 -0.7765,-0.6823 -1.5897,-1.1574 -2.4415,-1.4247 -0.796,-0.2659 -1.9219,-0.4005 -3.3812,-0.4005 z"
         style="fill:#ffffff;fill-opacity:1;fill-rule:nonzero;stroke:none"
         id="path176" />
      <path
         d="m 72.1871,109.9083 h -2.0954 v 9.0714 h 2.0954 z m -2.412,12.8463 c 0,0.364 0.1329,0.6806 0.4022,0.9499 0.2656,0.2659 0.5848,0.398 0.9567,0.398 0.3807,0 0.7019,-0.1321 0.9692,-0.398 0.2676,-0.2608 0.4005,-0.5817 0.4005,-0.9607 0,-0.3787 -0.1329,-0.7018 -0.4005,-0.9694 -0.2608,-0.265 -0.58,-0.4005 -0.9584,-0.4005 -0.3784,0 -0.7019,0.1355 -0.9675,0.4005 -0.2693,0.2676 -0.4022,0.595 -0.4022,0.9802"
         style="fill:#ffffff;fill-opacity:1;fill-rule:nonzero;stroke:none"
         id="path178" />
      <path
         d="m 81.5397,114.3882 c 0,0.871 -0.237,1.5772 -0.7078,2.1231 -0.4799,0.5539 -1.0811,0.83 -1.8065,0.83 -0.7705,0 -1.3952,-0.2653 -1.8726,-0.8028 -0.4793,-0.5326 -0.7188,-1.2342 -0.7188,-2.103 0,-0.8518 0.2395,-1.5542 0.7188,-2.1039 0.4706,-0.5417 1.0936,-0.811 1.8615,-0.811 0.728,0 1.3275,0.2736 1.798,0.8173 0.4862,0.5476 0.7274,1.2325 0.7274,2.0503 z m -4.9813,-9.4159 h -2.0996 v 14.0086 h 2.0996 v -0.9871 c 0.8237,0.8263 1.7609,1.2393 2.8097,1.2393 1.2495,0 2.2765,-0.4603 3.0835,-1.3804 0.8218,-0.9114 1.2308,-2.0625 1.2308,-3.4535 0,-1.3615 -0.407,-2.4933 -1.22,-3.4007 -0.8093,-0.9009 -1.8278,-1.3504 -3.056,-1.3504 -1.0636,0 -2.0115,0.4257 -2.848,1.275 z"
         style="fill:#ffffff;fill-opacity:1;fill-rule:nonzero;stroke:none"
         id="path180" />
      <path
         d="m 87.2504,114.4726 c 0,-0.8694 0.2336,-1.5755 0.6976,-2.1231 0.4799,-0.5545 1.0811,-0.8283 1.8085,-0.8283 0.777,0 1.4017,0.2653 1.8811,0.8002 0.4773,0.5519 0.7194,1.2538 0.7194,2.1039 0,0.8515 -0.2421,1.5534 -0.7194,2.1056 -0.4794,0.5391 -1.0973,0.811 -1.8618,0.811 -0.7212,0 -1.3241,-0.2736 -1.8082,-0.8195 -0.4768,-0.5539 -0.7172,-1.2371 -0.7172,-2.0498 z m 4.9762,4.5065 h 2.103 v -9.0714 h -2.103 v 0.9525 c -0.8651,-0.8093 -1.7937,-1.2116 -2.7867,-1.2116 -1.2541,0 -2.2918,0.4513 -3.1116,1.359 -0.8133,0.9269 -1.2198,2.08 -1.2198,3.465 0,1.3587 0.4065,2.4925 1.2198,3.3999 0.8135,0.9077 1.832,1.3589 3.0563,1.3589 1.0548,0 2.003,-0.4342 2.842,-1.3031 z"
         style="fill:#ffffff;fill-opacity:1;fill-rule:nonzero;stroke:none"
         id="path182" />
      <path
         d="m 96.6129,118.9803 h 2.0948 v -0.8116 c 0.3853,0.4071 0.7254,0.6806 1.0251,0.8303 0.3038,0.1565 0.6635,0.2336 1.0811,0.2336 0.5519,0 1.1293,-0.18 1.7331,-0.5417 l -0.961,-1.9174 c -0.3979,0.2849 -0.7849,0.428 -1.1641,0.428 -1.1427,0 -1.7142,-0.8625 -1.7142,-2.5894 v -4.7038 h -2.0948 z"
         style="fill:#ffffff;fill-opacity:1;fill-rule:nonzero;stroke:none"
         id="path184" />
      <path
         d="m 106.2139,117.0252 v -7.1158 h -2.0951 v 7.1158 h -0.8949 v 1.9557 h 0.8949 v 3.3256 h 2.0951 v -3.3256 h 1.6305 v -1.9557 z"
         style="fill:#ffffff;fill-opacity:1;fill-rule:nonzero;stroke:none"
         id="path186" />
      <path
         d="m 110.9832,109.9083 h -2.0971 v 9.0714 h 2.0971 z m -2.4137,12.8463 c 0,0.364 0.1346,0.6806 0.4022,0.9499 0.2651,0.2659 0.5865,0.398 0.9584,0.398 0.379,0 0.7024,-0.1321 0.97,-0.398 0.2673,-0.2608 0.398,-0.5817 0.398,-0.9607 0,-0.3787 -0.1307,-0.7018 -0.398,-0.9694 -0.2616,-0.265 -0.5825,-0.4005 -0.9609,-0.4005 -0.3793,0 -0.7024,0.1355 -0.9675,0.4005 -0.2676,0.2676 -0.4022,0.595 -0.4022,0.9802"
         style="fill:#ffffff;fill-opacity:1;fill-rule:nonzero;stroke:none"
         id="path188" />
      <path
         d="m 113.256,118.9803 h 2.0971 v -0.8391 c 0.4022,0.4235 0.7492,0.7081 1.0338,0.8578 0.3038,0.1565 0.6848,0.2336 1.1471,0.2336 1.0228,0 1.8338,-0.4476 2.4288,-1.3417 0.6587,0.8941 1.5511,1.3417 2.6728,1.3417 2.0437,0 3.0648,-1.2393 3.0648,-3.7174 v -5.6069 h -2.1039 v 5.0397 c 0,0.8688 -0.1074,1.4834 -0.3166,1.8448 -0.2183,0.3659 -0.5757,0.5479 -1.0727,0.5479 -0.5774,0 -0.9972,-0.2185 -1.2622,-0.6505 -0.2634,-0.4343 -0.3938,-1.1319 -0.3938,-2.0951 v -4.6868 h -2.1055 v 5.0119 c 0,1.6135 -0.4672,2.4205 -1.3975,2.4205 -0.591,0 -1.0211,-0.2202 -1.2903,-0.6613 -0.2699,-0.4411 -0.4048,-1.1361 -0.4048,-2.0843 v -4.6868 h -2.0971 z"
         style="fill:#ffffff;fill-opacity:1;fill-rule:nonzero;stroke:none"
         id="path190" />
      <path
         d="m 134.0759,115.6652 c -0.2937,1.1174 -0.9972,1.6761 -2.1166,1.6761 -0.2549,0 -0.4924,-0.0366 -0.7169,-0.1159 -0.2228,-0.0788 -0.4261,-0.1905 -0.6103,-0.3337 -0.1814,-0.148 -0.3379,-0.3234 -0.4683,-0.5289 -0.1304,-0.2053 -0.2313,-0.4363 -0.2996,-0.6976 z m 2.1504,-1.7139 h -6.501 c 0.055,-0.7472 0.2971,-1.3373 0.7271,-1.7784 0.426,-0.4368 0.9762,-0.6528 1.6483,-0.6528 0.5216,0 0.9519,0.1244 1.2946,0.3724 0.3359,0.2481 0.7169,0.7061 1.1446,1.3782 l 1.77,-0.987 c -0.2741,-0.4663 -0.563,-0.8663 -0.8668,-1.1962 -0.3014,-0.3336 -0.6291,-0.6052 -0.976,-0.8195 -0.3487,-0.216 -0.7254,-0.3725 -1.1276,-0.4725 -0.4048,-0.0964 -0.8408,-0.148 -1.3142,-0.148 -1.3521,0 -2.4398,0.4343 -3.2593,1.3036 -0.8194,0.8771 -1.2302,2.037 -1.2302,3.4855 0,1.4341 0.398,2.594 1.192,3.4821 0.8028,0.877 1.8638,1.3139 3.1867,1.3139 1.3351,0 2.3902,-0.4258 3.1646,-1.2776 0.7704,-0.843 1.1557,-2.0137 1.1557,-3.5116 l -0.008,-0.4921 z"
         style="fill:#ffffff;fill-opacity:1;fill-rule:nonzero;stroke:none"
         id="path192" />
      <path
         d="m 138.1365,118.9803 h 2.1056 v -0.8391 c 0.7339,0.7274 1.5576,1.0914 2.4781,1.0914 1.0547,0 1.8793,-0.3317 2.4675,-0.9973 0.5091,-0.5646 0.764,-1.4873 0.764,-2.7674 v -5.5596 h -2.1039 v 5.0678 c 0,0.8946 -0.1262,1.5111 -0.3742,1.853 -0.2421,0.3489 -0.6826,0.5224 -1.3224,0.5224 -0.6936,0 -1.1902,-0.231 -1.4808,-0.6891 -0.2868,-0.4538 -0.4283,-1.2453 -0.4283,-2.3774 v -4.3767 h -2.1056 z"
         style="fill:#ffffff;fill-opacity:1;fill-rule:nonzero;stroke:none"
         id="path194" />
      <path
         d="m 150.3757,117.0252 v -7.1158 h -2.0948 v 7.1158 h -0.8946 v 1.9557 h 0.8946 v 3.3256 h 2.0948 v -3.3256 h 1.631 v -1.9557 z"
         style="fill:#ffffff;fill-opacity:1;fill-rule:nonzero;stroke:none"
         id="path196" />
      <path
         d="m 154.8972,114.4726 c 0,-0.9076 0.2421,-1.6245 0.7257,-2.1512 0.4986,-0.5349 1.1537,-0.8002 1.9667,-0.8002 0.8195,0 1.4746,0.2611 1.9667,0.79 0.4881,0.5284 0.7364,1.2325 0.7364,2.1141 0,0.8838 -0.2483,1.588 -0.7364,2.1141 -0.4987,0.5349 -1.1535,0.8025 -1.9667,0.8025 -0.8002,0 -1.4511,-0.2676 -1.9454,-0.8025 -0.4987,-0.5327 -0.747,-1.2237 -0.747,-2.0668 z m -2.1418,0.038 c 0,1.3099 0.4688,2.4248 1.4062,3.3426 0.9389,0.9202 2.0818,1.3782 3.428,1.3782 1.3544,0 2.5041,-0.4623 3.4455,-1.3867 0.9329,-0.9263 1.3978,-2.0608 1.3978,-3.4086 0,-1.3612 -0.4692,-2.4999 -1.4063,-3.4178 -0.944,-0.9141 -2.1039,-1.3697 -3.4736,-1.3697 -1.3606,0 -2.5016,0.4646 -3.4194,1.3978 -0.9185,0.9179 -1.3782,2.0733 -1.3782,3.4642"
         style="fill:#ffffff;fill-opacity:1;fill-rule:nonzero;stroke:none"
         id="path198" />
      <path
         d="m 62.9663,90.8351 c 0,-0.6097 0.1627,-1.1064 0.4895,-1.4874 0.3345,-0.3894 0.7577,-0.5819 1.2648,-0.5819 0.546,0 0.9848,0.1862 1.3184,0.5607 0.3359,0.3875 0.5029,0.8796 0.5029,1.4746 0,0.595 -0.167,1.0888 -0.5029,1.4765 -0.3336,0.3768 -0.7682,0.5673 -1.305,0.5673 -0.5052,0 -0.9244,-0.1931 -1.2646,-0.5758 -0.3345,-0.3877 -0.5031,-0.8645 -0.5031,-1.434 z m 3.484,7.8216 h 1.474 V 87.6359 h -1.474 v 0.6678 c -0.5782,-0.5672 -1.2328,-0.8498 -1.9649,-0.8498 -0.8686,0 -1.5917,0.3167 -2.1657,0.9522 -0.5689,0.6485 -0.8535,1.4595 -0.8535,2.429 0,0.9462 0.2846,1.7379 0.8535,2.3737 0.5672,0.6392 1.2776,0.9584 2.1336,0.9584 0.745,0 1.4103,-0.3016 1.997,-0.9116 z"
         style="fill:#ffffff;fill-opacity:1;fill-rule:nonzero;stroke:none"
         id="path200" />
      <path
         d="m 70.9004,98.1479 1.3054,-0.5071 -1.8598,-3.7344 -0.9907,0.4113 z"
         style="fill:#ffffff;fill-opacity:1;fill-rule:nonzero;stroke:none"
         id="path202" />
      <path
         d="M 81.9771,99.5117 H 76.4303 V 96.186 h 5.3861 v -1.9624 h -5.3861 v -4.6241 h 5.5468 V 87.637 h -7.6354 v 13.8368 h 7.6354 z"
         style="fill:#ffffff;fill-opacity:1;fill-rule:nonzero;stroke:none"
         id="path204" />
      <path
         d="m 90.7617,95.9907 v -2.6818 c -0.4624,0.5629 -0.8731,0.9482 -1.2371,1.1579 -0.3591,0.2143 -0.7806,0.3235 -1.2622,0.3235 -0.762,0 -1.391,-0.2676 -1.8922,-0.7983 -0.5028,-0.5309 -0.7528,-1.2004 -0.7528,-1.999 0,-0.8195 0.2415,-1.4916 0.7256,-2.0157 0.4896,-0.5267 1.1149,-0.7897 1.8743,-0.7897 0.4836,0 0.9093,0.1049 1.2818,0.3141 0.3555,0.2015 0.779,0.5975 1.2626,1.1834 v -2.6642 c -0.8173,-0.4216 -1.6393,-0.6356 -2.4563,-0.6356 -1.3484,0 -2.4786,0.4368 -3.3857,1.3079 -0.9099,0.8796 -1.3654,1.9684 -1.3654,3.2721 0,1.303 0.4623,2.4035 1.3825,3.2998 0.9178,0.8966 2.0497,1.3439 3.3874,1.3439 0.8603,0 1.6718,-0.2075 2.4375,-0.6183"
         style="fill:#ffffff;fill-opacity:1;fill-rule:nonzero;stroke:none"
         id="path206" />
      <path
         d="m 99.1596,95.9907 v -2.6818 c -0.4604,0.5629 -0.8736,0.9482 -1.2351,1.1579 -0.3591,0.2143 -0.7806,0.3235 -1.2648,0.3235 -0.7594,0 -1.3884,-0.2676 -1.8915,-0.7983 -0.5009,-0.5309 -0.7509,-1.2004 -0.7509,-1.999 0,-0.8195 0.2415,-1.4916 0.7248,-2.0157 0.4884,-0.5267 1.1151,-0.7897 1.8728,-0.7897 0.4839,0 0.91,0.1049 1.2816,0.3141 0.358,0.2015 0.7795,0.5975 1.2631,1.1834 v -2.6642 c -0.8178,-0.4216 -1.6373,-0.6356 -2.4551,-0.6356 -1.3501,0 -2.4797,0.4368 -3.3871,1.3079 -0.9094,0.8796 -1.3632,1.9684 -1.3632,3.2721 0,1.303 0.4598,2.4035 1.3799,3.2998 0.9204,0.8966 2.0506,1.3439 3.39,1.3439 0.86,0 1.6713,-0.2075 2.4355,-0.6183"
         style="fill:#ffffff;fill-opacity:1;fill-rule:nonzero;stroke:none"
         id="path208" />
      <path
         d="m 106.6448,93.1754 c -0.2804,1.0763 -0.9587,1.6137 -2.0353,1.6137 -0.2438,0 -0.4726,-0.0388 -0.6891,-0.1117 -0.216,-0.0745 -0.4108,-0.1814 -0.5885,-0.3228 -0.1729,-0.1412 -0.3271,-0.3081 -0.4513,-0.5071 -0.1261,-0.197 -0.2228,-0.4215 -0.2868,-0.6721 z m 2.0695,-1.6481 h -6.2555 c 0.0559,-0.7189 0.2872,-1.2881 0.7002,-1.7118 0.4124,-0.4176 0.9414,-0.6293 1.5857,-0.6293 0.5029,0 0.9179,0.1221 1.2472,0.3597 0.3209,0.2398 0.6891,0.6826 1.1004,1.3269 l 1.7034,-0.9502 c -0.2614,-0.4493 -0.5417,-0.8328 -0.8328,-1.1537 -0.2931,-0.3183 -0.6055,-0.58 -0.9417,-0.7875 -0.3336,-0.2055 -0.6951,-0.3571 -1.0845,-0.4535 -0.3895,-0.0941 -0.8093,-0.1414 -1.2629,-0.1414 -1.3031,0 -2.3476,0.4172 -3.1374,1.2546 -0.7894,0.8424 -1.1831,1.9598 -1.1831,3.3508 0,1.3825 0.3829,2.4993 1.1466,3.3534 0.7704,0.8407 1.7915,1.2623 3.0645,1.2623 1.2861,0 2.3009,-0.4082 3.0495,-1.226 0.7384,-0.8153 1.1109,-1.9386 1.1109,-3.3789 z"
         style="fill:#ffffff;fill-opacity:1;fill-rule:nonzero;stroke:none"
         id="path210" />
      <path
         d="m 112.5711,87.637 h -2.0179 v 15.1362 h 2.0179 z"
         style="fill:#ffffff;fill-opacity:1;fill-rule:nonzero;stroke:none"
         id="path212" />
      <path
         d="m 116.7721,87.637 h -2.0183 v 15.1362 h 2.0183 z"
         style="fill:#ffffff;fill-opacity:1;fill-rule:nonzero;stroke:none"
         id="path214" />
      <path
         d="m 124.8395,93.1754 c -0.2804,1.0763 -0.9584,1.6137 -2.0347,1.6137 -0.2444,0 -0.4731,-0.0388 -0.6891,-0.1117 -0.2166,-0.0745 -0.4113,-0.1814 -0.5891,-0.3228 -0.1729,-0.1412 -0.3268,-0.3081 -0.4512,-0.5071 -0.1262,-0.197 -0.2225,-0.4215 -0.2869,-0.6721 z m 2.0699,-1.6481 h -6.2555 c 0.0558,-0.7189 0.2868,-1.2881 0.6998,-1.7118 0.4133,-0.4176 0.9417,-0.6293 1.5857,-0.6293 0.5032,0 0.9179,0.1221 1.2478,0.3597 0.3212,0.2398 0.6886,0.6826 1.0999,1.3269 l 1.7033,-0.9502 c -0.2608,-0.4493 -0.5417,-0.8328 -0.8322,-1.1537 -0.2934,-0.3183 -0.6061,-0.58 -0.942,-0.7875 -0.3336,-0.2055 -0.6953,-0.3571 -1.0845,-0.4535 -0.3895,-0.0941 -0.8093,-0.1414 -1.2631,-0.1414 -1.3031,0 -2.3477,0.4172 -3.1369,1.2546 -0.7897,0.8424 -1.1834,1.9598 -1.1834,3.3508 0,1.3825 0.3827,2.4993 1.1472,3.3534 0.7701,0.8407 1.7906,1.2623 3.0639,1.2623 1.2867,0 2.3009,-0.4082 3.0501,-1.226 0.7382,-0.8153 1.1101,-1.9386 1.1101,-3.3789 z"
         style="fill:#ffffff;fill-opacity:1;fill-rule:nonzero;stroke:none"
         id="path216" />
      <path
         d="m 128.7479,96.3655 h 2.0242 v -0.8068 c 0.7061,0.6996 1.5001,1.0483 2.384,1.0483 1.0187,0 1.8085,-0.3183 2.3757,-0.9584 0.4901,-0.5417 0.7364,-1.4315 0.7364,-2.6626 v -5.3495 h -2.0268 v 4.8747 c 0,0.8626 -0.1201,1.4553 -0.3574,1.7847 -0.2333,0.3359 -0.6593,0.5009 -1.273,0.5009 -0.6682,0 -1.143,-0.2208 -1.4256,-0.6636 -0.2738,-0.4343 -0.4133,-1.1962 -0.4133,-2.2833 v -4.2134 h -2.0242 z"
         style="fill:#ffffff;fill-opacity:1;fill-rule:nonzero;stroke:none"
         id="path218" />
      <path
         d="m 141.3405,89.5382 h 5.1897 v -1.9006 h -9.1871 l 5.6537,6.8482 h -4.4532 v 1.8785 h 8.4421 z"
         style="fill:#ffffff;fill-opacity:1;fill-rule:nonzero;stroke:none"
         id="path220" />
      <path
         d="m 149.7022,92.0282 c 0,-0.8365 0.2245,-1.5171 0.6715,-2.0435 0.4581,-0.5309 1.0403,-0.7985 1.7379,-0.7985 0.7492,0 1.3524,0.2568 1.8102,0.773 0.4607,0.5306 0.6917,1.2047 0.6917,2.0242 0,0.8195 -0.231,1.4936 -0.6917,2.0268 -0.4578,0.5173 -1.0547,0.7789 -1.7906,0.7789 -0.6934,0 -1.2733,-0.2633 -1.7405,-0.79 -0.4572,-0.5306 -0.6885,-1.1894 -0.6885,-1.9709 z m 4.7868,4.3381 h 2.0243 V 87.637 h -2.0243 v 0.9136 c -0.8322,-0.7747 -1.7246,-1.1641 -2.6813,-1.1641 -1.2069,0 -2.2042,0.4342 -2.9942,1.3079 -0.7832,0.8898 -1.1724,2.0029 -1.1724,3.3338 0,1.3099 0.3892,2.3992 1.1724,3.2723 0.7838,0.8728 1.7634,1.3071 2.941,1.3071 1.0162,0 1.9261,-0.419 2.7345,-1.2538 z"
         style="fill:#ffffff;fill-opacity:1;fill-rule:nonzero;stroke:none"
         id="path222" />
      <path
         d="m 80.0986,68.1446 c 0,-0.5434 -0.0882,-1.374 -0.2634,-2.4908 -0.1734,-1.1174 -0.2616,-1.9562 -0.2616,-2.5211 -0.6806,0 -1.9791,0.0408 -3.9027,0.1202 -0.97,0.0382 -1.6696,0.0575 -2.0977,0.0575 -2.5424,0 -4.3974,-0.0575 -5.5615,-0.1777 h -0.2058 c -0.2523,0 -0.3765,0.0898 -0.3765,0.2633 0,0.1752 1.2308,0.8838 3.6978,2.1274 1.4553,0.7359 2.6303,1.6883 3.5243,2.8548 0.8924,1.1642 1.3402,2.3281 1.3402,3.4945 0,1.0483 -0.3208,1.8958 -0.9609,2.5487 -0.6423,0.6482 -1.4746,0.9759 -2.5058,0.9759 -0.9508,0 -1.7297,-0.2523 -2.3307,-0.7577 -0.6012,-0.5054 -0.9008,-0.9907 -0.9008,-1.4553 0,-0.1947 0.0468,-0.3166 0.1454,-0.3657 0.0958,-0.0473 0.4516,-0.1457 1.0636,-0.2911 0.6097,-0.1457 0.9158,-0.4708 0.9158,-0.9762 0,-0.3487 -0.1202,-0.646 -0.3639,-0.8881 -0.2415,-0.2438 -0.5392,-0.3634 -0.8881,-0.3634 -0.4859,0 -0.9032,0.2095 -1.2538,0.6267 -0.3489,0.4173 -0.5224,0.9184 -0.5224,1.4984 0,1.0675 0.4858,1.9667 1.4553,2.6963 0.9717,0.7274 2.1546,1.0914 3.5524,1.0914 1.5925,0 2.8655,-0.4471 3.8179,-1.3394 0.9502,-0.8929 1.4276,-1.9134 1.4276,-3.0586 0,-1.5729 -0.9805,-3.0107 -2.9384,-4.3118 -0.392,-0.2522 -1.0812,-0.6465 -2.0693,-1.1792 -0.9887,-0.5326 -1.6396,-0.8603 -1.9539,-0.9762 -0.1565,-0.038 -0.2438,-0.0768 -0.2634,-0.1151 0,-0.0389 0.1755,-0.0686 0.5284,-0.0882 1.8,-0.0575 3.3619,-0.0683 4.6911,-0.0295 1.1148,0.0213 1.8039,0.156 2.0673,0.4088 0.2633,0.25 0.4858,0.9609 0.6593,2.1268 0.0576,0.3853 0.1128,0.6248 0.1627,0.7127 0.0465,0.0856 0.1406,0.1304 0.2778,0.1304 0.1948,0 0.2937,-0.1151 0.2937,-0.3487"
         style="fill:#ffffff;fill-opacity:1;fill-rule:nonzero;stroke:none"
         id="path224" />
      <path
         d="m 93.6692,69.5727 c 0,1.7844 -0.4303,3.2312 -1.2904,4.3396 -0.8625,1.1066 -1.9902,1.6585 -3.3831,1.6585 -1.3357,0 -2.4185,-0.5865 -3.2533,-1.7612 -0.8323,-1.1749 -1.2473,-2.7053 -1.2473,-4.5884 0,-1.9412 0.5522,-3.4642 1.6543,-4.5706 0.7934,-0.7965 1.6841,-1.1965 2.6705,-1.1965 1.5687,0 2.8358,0.6911 3.8053,2.0693 0.6976,0.9887 1.044,2.3392 1.044,4.0493 z m 2.4482,-0.2937 c 0,-2.0177 -0.9246,-3.6785 -2.7668,-4.9799 -1.4001,-0.9887 -2.9231,-1.4848 -4.5732,-1.4848 -1.9411,0 -3.6082,0.6398 -4.9949,1.9216 -1.3893,1.2819 -2.0826,2.8143 -2.0826,4.6012 0,1.1659 0.3149,2.2683 0.9465,3.3061 0.6307,1.0397 1.4805,1.8601 2.5483,2.461 1.3207,0.7384 2.6989,1.1067 4.1346,1.1067 0.8754,0 1.7677,-0.1888 2.6796,-0.5672 0.9116,-0.3793 1.6603,-0.8689 2.2445,-1.4707 1.241,-1.2815 1.864,-2.9123 1.864,-4.894"
         style="fill:#ffffff;fill-opacity:1;fill-rule:nonzero;stroke:none"
         id="path226" />
      <path
         d="m 105.787,75.6581 c 0,-0.1947 -0.1627,-0.2911 -0.4861,-0.2911 h -0.9142 c -0.7036,0 -1.1276,-0.0516 -1.2688,-0.1602 -0.1451,-0.1048 -0.2137,-0.4215 -0.2137,-0.9439 V 64.821 c 0,-0.563 0.0856,-0.9009 0.2607,-1.0185 0.1755,-0.1159 0.6977,-0.1542 1.573,-0.1159 h 0.6401 c 0.2718,0.0195 0.409,-0.0746 0.409,-0.2906 0,-0.1947 -0.1372,-0.2803 -0.409,-0.2614 h -0.7552 -1.3399 -0.4091 -0.7872 -0.9008 -0.5545 -1.3396 -1.4273 c -0.2522,0 -0.379,0.0769 -0.379,0.2311 0,0.1372 0.0879,0.214 0.2631,0.2335 0.1735,0.0193 0.7577,0.0383 1.7464,0.0576 0.3682,0 0.6316,0.0686 0.7875,0.2058 0.1542,0.1321 0.2336,0.4535 0.2336,0.9584 v 9.3563 c 0,0.58 -0.1134,0.9289 -0.3362,1.0465 -0.2248,0.1151 -0.9074,0.1645 -2.052,0.1432 -0.3708,0 -0.5545,0.1091 -0.5545,0.3251 0,0.1522 0.1245,0.2293 0.3742,0.2293 0.4071,0 1.0616,-0.0212 1.9667,-0.0575 h 1.5043 l 3.9637,0.0575 c 0.2676,0 0.4048,-0.0878 0.4048,-0.2633"
         style="fill:#ffffff;fill-opacity:1;fill-rule:nonzero;stroke:none"
         id="path228" />
      <path
         d="m 115.8046,77.7274 c 0,2.8528 -0.8821,4.2803 -2.6498,4.2803 -0.8728,0 -1.5576,-0.3878 -2.0523,-1.1642 -0.496,-0.7769 -0.7441,-1.8448 -0.7441,-3.2034 0,-2.759 0.9522,-4.1372 2.8548,-4.1372 1.7269,0 2.5914,1.4086 2.5914,4.2245 z m 0.9051,-9.4972 c 0,1.4596 -0.3169,2.6042 -0.9482,3.437 -0.6309,0.8365 -1.5003,1.2538 -2.6067,1.2538 -1.01,0 -1.8533,-0.4748 -2.5333,-1.4273 -0.6806,-0.9504 -1.0191,-2.1359 -1.0191,-3.5523 0,-1.3612 0.349,-2.4611 1.0488,-3.3067 0.6977,-0.845 1.6096,-1.2665 2.7372,-1.2665 1.0488,0 1.864,0.4275 2.446,1.2816 0.5839,0.854 0.8753,2.048 0.8753,3.5804 z m 2.6496,-0.1159 c 0,-1.4936 -0.5738,-2.7516 -1.7187,-3.7701 -1.1469,-1.0191 -2.5531,-1.5282 -4.2244,-1.5282 -1.8253,0 -3.3534,0.4879 -4.5859,1.4681 -1.2328,0.9822 -1.8513,2.1912 -1.8513,3.6269 0,1.6523 0.7109,2.99 2.1274,4.019 0.7577,0.5629 1.836,0.9802 3.2332,1.2543 l -0.0298,0.1154 c -3.0858,0.4453 -4.631,1.9023 -4.631,4.3699 0,1.3977 0.5097,2.5534 1.5299,3.4645 1.0185,0.9116 2.3156,1.3697 3.8886,1.3697 1.5729,0 2.8632,-0.4581 3.8712,-1.3697 1.0126,-0.9111 1.5171,-2.0778 1.5171,-3.494 0,-2.1767 -1.455,-3.6428 -4.3699,-4.3982 l -0.0272,-0.0879 c 1.4933,-0.3311 2.6297,-0.796 3.4067,-1.3969 1.243,-0.972 1.8641,-2.1853 1.8641,-3.6428"
         style="fill:#ffffff;fill-opacity:1;fill-rule:nonzero;stroke:none"
         id="path230" />
      <path
         d="m 128.5058,68.9315 h -8.0104 v 1.5128 h 8.0104 z"
         style="fill:#ffffff;fill-opacity:1;fill-rule:nonzero;stroke:none"
         id="path232" />
      <path
         d="m 141.9296,68.1446 c 0,-0.5434 -0.0853,-1.374 -0.2608,-2.4908 -0.1735,-1.1174 -0.2634,-1.9562 -0.2634,-2.5211 -0.678,0 -1.9791,0.0408 -3.901,0.1202 -0.9717,0.0382 -1.6693,0.0575 -2.0971,0.0575 -2.5446,0 -4.3979,-0.0575 -5.5621,-0.1777 h -0.2055 c -0.2523,0 -0.3787,0.0898 -0.3787,0.2633 0,0.1752 1.2328,0.8838 3.6998,2.1274 1.4553,0.7359 2.6302,1.6883 3.5226,2.8548 0.8949,1.1642 1.3402,2.3281 1.3402,3.4945 0,1.0483 -0.3192,1.8958 -0.961,2.5487 -0.64,0.6482 -1.4745,0.9759 -2.5041,0.9759 -0.9524,0 -1.7288,-0.2523 -2.3306,-0.7577 -0.6013,-0.5054 -0.9026,-0.9907 -0.9026,-1.4553 0,-0.1947 0.0491,-0.3166 0.1449,-0.3657 0.0989,-0.0473 0.4518,-0.1457 1.0641,-0.2911 0.6094,-0.1457 0.9179,-0.4708 0.9179,-0.9762 0,-0.3487 -0.1222,-0.646 -0.366,-0.8881 -0.2421,-0.2438 -0.5374,-0.3634 -0.8881,-0.3634 -0.4858,0 -0.9031,0.2095 -1.2521,0.6267 -0.3486,0.4173 -0.5241,0.9184 -0.5241,1.4984 0,1.0675 0.4859,1.9667 1.4573,2.6963 0.9717,0.7274 2.1526,1.0914 3.5521,1.0914 1.5925,0 2.8638,-0.4471 3.8157,-1.3394 0.9525,-0.8929 1.4276,-1.9134 1.4276,-3.0586 0,-1.5729 -0.98,-3.0107 -2.9362,-4.3118 -0.3912,-0.2522 -1.0828,-0.6465 -2.0715,-1.1792 -0.9865,-0.5326 -1.6368,-0.8603 -1.9517,-0.9762 -0.1559,-0.038 -0.2438,-0.0768 -0.263,-0.1151 0,-0.0389 0.1751,-0.0686 0.5264,-0.0882 1.8,-0.0575 3.3618,-0.0683 4.6927,-0.0295 1.1152,0.0213 1.8023,0.156 2.0673,0.4088 0.2617,0.25 0.4842,0.9609 0.6596,2.1268 0.0576,0.3853 0.1109,0.6248 0.1602,0.7127 0.0496,0.0856 0.1412,0.1304 0.2784,0.1304 0.197,0 0.2928,-0.1151 0.2928,-0.3487"
         style="fill:#ffffff;fill-opacity:1;fill-rule:nonzero;stroke:none"
         id="path234" />
      <path
         d="m 155.6192,68.1446 c 0,-0.5434 -0.0873,-1.374 -0.2633,-2.4908 -0.1729,-1.1174 -0.2608,-1.9562 -0.2608,-2.5211 -0.6806,0 -1.9794,0.0408 -3.9036,0.1202 -0.9695,0.0382 -1.6688,0.0575 -2.0971,0.0575 -2.5424,0 -4.3979,-0.0575 -5.5621,-0.1777 h -0.205 c -0.2528,0 -0.3767,0.0898 -0.3767,0.2633 0,0.1752 1.2303,0.8838 3.6981,2.1274 1.455,0.7359 2.6294,1.6883 3.5243,2.8548 0.8924,1.1642 1.3394,2.3281 1.3394,3.4945 0,1.0483 -0.3209,1.8958 -0.961,2.5487 -0.6417,0.6482 -1.474,0.9759 -2.5058,0.9759 -0.9499,0 -1.7288,-0.2523 -2.3301,-0.7577 -0.6018,-0.5054 -0.9014,-0.9907 -0.9014,-1.4553 0,-0.1947 0.0473,-0.3166 0.1457,-0.3657 0.0964,-0.0473 0.4519,-0.1457 1.0639,-0.2911 0.6097,-0.1457 0.9161,-0.4708 0.9161,-0.9762 0,-0.3487 -0.1202,-0.646 -0.364,-0.8881 -0.242,-0.2438 -0.5394,-0.3634 -0.8881,-0.3634 -0.4858,0 -0.9034,0.2095 -1.2546,0.6267 -0.3486,0.4173 -0.5215,0.9184 -0.5215,1.4984 0,1.0675 0.4858,1.9667 1.4553,2.6963 0.9711,0.7274 2.1546,1.0914 3.5523,1.0914 1.5917,0 2.865,-0.4471 3.8175,-1.3394 0.9504,-0.8929 1.4272,-1.9134 1.4272,-3.0586 0,-1.5729 -0.9796,-3.0107 -2.9378,-4.3118 -0.3918,-0.2522 -1.0809,-0.6465 -2.0699,-1.1792 -0.9887,-0.5326 -1.639,-0.8603 -1.9539,-0.9762 -0.1559,-0.038 -0.2438,-0.0768 -0.2625,-0.1151 0,-0.0389 0.1752,-0.0686 0.5284,-0.0882 1.7997,-0.0575 3.3619,-0.0683 4.6908,-0.0295 1.1151,0.0213 1.8042,0.156 2.0676,0.4088 0.263,0.25 0.4852,0.9609 0.6587,2.1268 0.0576,0.3853 0.1134,0.6248 0.1624,0.7127 0.0474,0.0856 0.1415,0.1304 0.2784,0.1304 0.1948,0 0.2931,-0.1151 0.2931,-0.3487"
         style="fill:#ffffff;fill-opacity:1;fill-rule:nonzero;stroke:none"
         id="path236" />
    </g>
  </g>
</svg>
